<?xml version="1.0" encoding="UTF-8" standalone="no"?>
<!DOCTYPE svg PUBLIC "-//W3C//DTD SVG 1.1//EN"
 "http://www.w3.org/Graphics/SVG/1.1/DTD/svg11.dtd">
<!-- Generated by graphviz version 2.40.1 (20161225.0304)
 -->
<!-- Title: structs Pages: 1 -->
<svg width="760pt" height="511pt"
 viewBox="0.00 0.00 760.00 511.00" xmlns="http://www.w3.org/2000/svg" xmlns:xlink="http://www.w3.org/1999/xlink">
<g id="graph0" class="graph" transform="scale(1 1) rotate(0) translate(4 507)">
<title>structs</title>
<polygon fill="#ffffff" stroke="transparent" points="-4,4 -4,-507 756,-507 756,4 -4,4"/>
<!-- root -->
<g id="node1" class="node">
<title>root</title>
<polygon fill="none" stroke="#000000" points="262,-462.5 262,-502.5 446,-502.5 446,-462.5 262,-462.5"/>
<text text-anchor="middle" x="354" y="-489.7" font-family="Times,serif" font-size="11.00" fill="#000000">./</text>
<polyline fill="none" stroke="#000000" points="262,-482.5 446,-482.5 "/>
<text text-anchor="middle" x="285" y="-469.7" font-family="Times,serif" font-size="11.00" fill="#000000">chan.h</text>
<polyline fill="none" stroke="#000000" points="308,-462.5 308,-482.5 "/>
<text text-anchor="middle" x="333.5" y="-469.7" font-family="Times,serif" font-size="11.00" fill="#000000">select.h</text>
<polyline fill="none" stroke="#000000" points="359,-462.5 359,-482.5 "/>
<text text-anchor="middle" x="382.5" y="-469.7" font-family="Times,serif" font-size="11.00" fill="#000000">error.h</text>
<polyline fill="none" stroke="#000000" points="406,-462.5 406,-482.5 "/>
<text text-anchor="middle" x="426" y="-469.7" font-family="Times,serif" font-size="11.00" fill="#000000">file.h</text>
</g>
<!-- chan -->
<g id="node2" class="node">
<title>chan</title>
<polygon fill="none" stroke="#000000" points="327,-385.5 327,-425.5 381,-425.5 381,-385.5 327,-385.5"/>
<text text-anchor="middle" x="354" y="-412.7" font-family="Times,serif" font-size="11.00" fill="#000000">chan/</text>
<polyline fill="none" stroke="#000000" points="327,-405.5 381,-405.5 "/>
<text text-anchor="middle" x="354" y="-392.7" font-family="Times,serif" font-size="11.00" fill="#000000">chan</text>
</g>
<!-- root&#45;&gt;chan -->
<g id="edge1" class="edge">
<title>root&#45;&gt;chan</title>
<path fill="none" stroke="#000000" d="M354,-462.2692C354,-454.1345 354,-444.5833 354,-435.66"/>
<polygon fill="#000000" stroke="#000000" points="357.5001,-435.5957 354,-425.5957 350.5001,-435.5958 357.5001,-435.5957"/>
</g>
<!-- select -->
<g id="node7" class="node">
<title>select</title>
<polygon fill="none" stroke="#000000" points="381.5,-231.5 381.5,-271.5 478.5,-271.5 478.5,-231.5 381.5,-231.5"/>
<text text-anchor="middle" x="430" y="-258.7" font-family="Times,serif" font-size="11.00" fill="#000000">select/</text>
<polyline fill="none" stroke="#000000" points="381.5,-251.5 478.5,-251.5 "/>
<text text-anchor="middle" x="403" y="-238.7" font-family="Times,serif" font-size="11.00" fill="#000000">select</text>
<polyline fill="none" stroke="#000000" points="424.5,-231.5 424.5,-251.5 "/>
<text text-anchor="middle" x="451.5" y="-238.7" font-family="Times,serif" font-size="11.00" fill="#000000">lasterror</text>
</g>
<!-- root&#45;&gt;select -->
<g id="edge3" class="edge">
<title>root&#45;&gt;select</title>
<path fill="none" stroke="#000000" d="M369.3048,-462.2454C376.5026,-451.8743 384.6571,-438.768 390,-426 410.2241,-377.6702 421.1573,-317.3307 426.2665,-281.7505"/>
<polygon fill="#000000" stroke="#000000" points="429.775,-281.9274 427.669,-271.544 422.8402,-280.9744 429.775,-281.9274"/>
</g>
<!-- errors -->
<g id="node8" class="node">
<title>errors</title>
<polygon fill="none" stroke="#000000" points="181.5,-.5 181.5,-40.5 262.5,-40.5 262.5,-.5 181.5,-.5"/>
<text text-anchor="middle" x="222" y="-27.7" font-family="Times,serif" font-size="11.00" fill="#000000">errors/</text>
<polyline fill="none" stroke="#000000" points="181.5,-20.5 262.5,-20.5 "/>
<text text-anchor="middle" x="200.5" y="-7.7" font-family="Times,serif" font-size="11.00" fill="#000000">error</text>
<polyline fill="none" stroke="#000000" points="219.5,-.5 219.5,-20.5 "/>
<text text-anchor="middle" x="241" y="-7.7" font-family="Times,serif" font-size="11.00" fill="#000000">errors</text>
</g>
<!-- root&#45;&gt;errors -->
<g id="edge2" class="edge">
<title>root&#45;&gt;errors</title>
<path fill="none" stroke="#000000" d="M265.584,-462.4863C160.7317,-436.1325 0,-386.3065 0,-328.5 0,-328.5 0,-328.5 0,-174.5 0,-91.5128 106.0271,-49.6778 171.5337,-31.7503"/>
<polygon fill="#000000" stroke="#000000" points="172.5069,-35.1133 181.2818,-29.176 170.7196,-28.3454 172.5069,-35.1133"/>
</g>
<!-- chanevents -->
<g id="node3" class="node">
<title>chanevents</title>
<polygon fill="none" stroke="#000000" points="210.5,-308.5 210.5,-348.5 325.5,-348.5 325.5,-308.5 210.5,-308.5"/>
<text text-anchor="middle" x="268" y="-335.7" font-family="Times,serif" font-size="11.00" fill="#000000">chanevents/</text>
<polyline fill="none" stroke="#000000" points="210.5,-328.5 325.5,-328.5 "/>
<text text-anchor="middle" x="239.5" y="-315.7" font-family="Times,serif" font-size="11.00" fill="#000000">chansend</text>
<polyline fill="none" stroke="#000000" points="268.5,-308.5 268.5,-328.5 "/>
<text text-anchor="middle" x="297" y="-315.7" font-family="Times,serif" font-size="11.00" fill="#000000">chanrecv</text>
</g>
<!-- chan&#45;&gt;chanevents -->
<g id="edge4" class="edge">
<title>chan&#45;&gt;chanevents</title>
<path fill="none" stroke="#000000" d="M331.4045,-385.2692C321.2328,-376.1619 309.0779,-365.2791 298.1443,-355.4897"/>
<polygon fill="#000000" stroke="#000000" points="300.2294,-352.6587 290.4446,-348.5957 295.5601,-357.8738 300.2294,-352.6587"/>
</g>
<!-- chanstate -->
<g id="node4" class="node">
<title>chanstate</title>
<polygon fill="none" stroke="#000000" points="239,-231.5 239,-271.5 301,-271.5 301,-231.5 239,-231.5"/>
<text text-anchor="middle" x="270" y="-258.7" font-family="Times,serif" font-size="11.00" fill="#000000">chanstate/</text>
<polyline fill="none" stroke="#000000" points="239,-251.5 301,-251.5 "/>
<text text-anchor="middle" x="270" y="-238.7" font-family="Times,serif" font-size="11.00" fill="#000000">chanstate</text>
</g>
<!-- chan&#45;&gt;chanstate -->
<g id="edge5" class="edge">
<title>chan&#45;&gt;chanstate</title>
<path fill="none" stroke="#000000" d="M353.8303,-385.1173C352.823,-364.4071 348.8887,-332.0419 335,-308 328.4492,-296.6603 318.7723,-286.4664 308.8753,-277.9616"/>
<polygon fill="#000000" stroke="#000000" points="310.913,-275.1074 300.9463,-271.5134 306.4963,-280.5383 310.913,-275.1074"/>
</g>
<!-- chan&#45;&gt;select -->
<g id="edge6" class="edge">
<title>chan&#45;&gt;select</title>
<path fill="none" stroke="#000000" d="M363.9357,-385.3672C377.0786,-358.7354 400.3414,-311.5977 415.4619,-280.9588"/>
<polygon fill="#000000" stroke="#000000" points="418.775,-282.1541 420.0619,-271.6378 412.4977,-279.0563 418.775,-282.1541"/>
</g>
<!-- chanevents&#45;&gt;chanstate -->
<g id="edge7" class="edge">
<title>chanevents&#45;&gt;chanstate</title>
<path fill="none" stroke="#000000" d="M268.5255,-308.2692C268.7368,-300.1345 268.9848,-290.5833 269.2166,-281.66"/>
<polygon fill="#000000" stroke="#000000" points="272.7171,-281.6833 269.478,-271.5957 265.7195,-281.5014 272.7171,-281.6833"/>
</g>
<!-- chanevents&#45;&gt;errors -->
<g id="edge9" class="edge">
<title>chanevents&#45;&gt;errors</title>
<path fill="none" stroke="#000000" d="M210.4935,-315.391C182.737,-306.7553 150.4556,-293.0464 127,-272 98.1427,-246.1066 95.3907,-232.6168 86,-195 73.0156,-142.9877 76.1802,-117.761 111,-77 126.966,-58.3098 150.6399,-45.0776 172.028,-36.1415"/>
<polygon fill="#000000" stroke="#000000" points="173.3322,-39.3896 181.3406,-32.4529 170.7544,-32.8815 173.3322,-39.3896"/>
</g>
<!-- event -->
<g id="node10" class="node">
<title>event</title>
<polygon fill="none" stroke="#000000" points="300,-154.5 300,-194.5 402,-194.5 402,-154.5 300,-154.5"/>
<text text-anchor="middle" x="351" y="-181.7" font-family="Times,serif" font-size="11.00" fill="#000000">event/</text>
<polyline fill="none" stroke="#000000" points="300,-174.5 402,-174.5 "/>
<text text-anchor="middle" x="326.5" y="-161.7" font-family="Times,serif" font-size="11.00" fill="#000000">eventref</text>
<polyline fill="none" stroke="#000000" points="353,-154.5 353,-174.5 "/>
<text text-anchor="middle" x="377.5" y="-161.7" font-family="Times,serif" font-size="11.00" fill="#000000">ioevent</text>
</g>
<!-- chanevents&#45;&gt;event -->
<g id="edge8" class="edge">
<title>chanevents&#45;&gt;event</title>
<path fill="none" stroke="#000000" d="M284.8104,-308.39C293.0466,-297.9486 302.7295,-284.7379 310,-272 322.4592,-250.1713 333.316,-223.8125 340.7222,-204.008"/>
<polygon fill="#000000" stroke="#000000" points="344.0208,-205.1786 344.1716,-194.5848 337.4473,-202.7723 344.0208,-205.1786"/>
</g>
<!-- files -->
<g id="node6" class="node">
<title>files</title>
<polygon fill="none" stroke="#000000" points="104.5,-154.5 104.5,-194.5 243.5,-194.5 243.5,-154.5 104.5,-154.5"/>
<text text-anchor="middle" x="174" y="-181.7" font-family="Times,serif" font-size="11.00" fill="#000000">files/</text>
<polyline fill="none" stroke="#000000" points="104.5,-174.5 243.5,-174.5 "/>
<text text-anchor="middle" x="131" y="-161.7" font-family="Times,serif" font-size="11.00" fill="#000000">pipepair</text>
<polyline fill="none" stroke="#000000" points="157.5,-154.5 157.5,-174.5 "/>
<text text-anchor="middle" x="184.5" y="-161.7" font-family="Times,serif" font-size="11.00" fill="#000000">pipepool</text>
<polyline fill="none" stroke="#000000" points="211.5,-154.5 211.5,-174.5 "/>
<text text-anchor="middle" x="227.5" y="-161.7" font-family="Times,serif" font-size="11.00" fill="#000000">file</text>
</g>
<!-- chanstate&#45;&gt;files -->
<g id="edge10" class="edge">
<title>chanstate&#45;&gt;files</title>
<path fill="none" stroke="#000000" d="M245.0277,-231.4702C233.4522,-222.1857 219.5352,-211.023 207.0994,-201.0485"/>
<polygon fill="#000000" stroke="#000000" points="209.1714,-198.2237 199.1807,-194.697 204.7916,-203.6842 209.1714,-198.2237"/>
</g>
<!-- threading -->
<g id="node9" class="node">
<title>threading</title>
<polygon fill="none" stroke="#000000" points="194,-77.5 194,-117.5 364,-117.5 364,-77.5 194,-77.5"/>
<text text-anchor="middle" x="279" y="-104.7" font-family="Times,serif" font-size="11.00" fill="#000000">threading/</text>
<polyline fill="none" stroke="#000000" points="194,-97.5 364,-97.5 "/>
<text text-anchor="middle" x="216" y="-84.7" font-family="Times,serif" font-size="11.00" fill="#000000">mutex</text>
<polyline fill="none" stroke="#000000" points="238,-77.5 238,-97.5 "/>
<text text-anchor="middle" x="271" y="-84.7" font-family="Times,serif" font-size="11.00" fill="#000000">threadlocal</text>
<polyline fill="none" stroke="#000000" points="304,-77.5 304,-97.5 "/>
<text text-anchor="middle" x="334" y="-84.7" font-family="Times,serif" font-size="11.00" fill="#000000">lockguard</text>
</g>
<!-- chanstate&#45;&gt;threading -->
<g id="edge11" class="edge">
<title>chanstate&#45;&gt;threading</title>
<path fill="none" stroke="#000000" d="M271.1766,-231.3672C272.7195,-204.966 275.4402,-158.4124 277.2317,-127.7583"/>
<polygon fill="#000000" stroke="#000000" points="280.7336,-127.8249 277.8231,-117.6378 273.7456,-127.4165 280.7336,-127.8249"/>
</g>
<!-- fileevents -->
<g id="node5" class="node">
<title>fileevents</title>
<polygon fill="none" stroke="#000000" points="136,-231.5 136,-271.5 212,-271.5 212,-231.5 136,-231.5"/>
<text text-anchor="middle" x="174" y="-258.7" font-family="Times,serif" font-size="11.00" fill="#000000">fileevents/</text>
<polyline fill="none" stroke="#000000" points="136,-251.5 212,-251.5 "/>
<text text-anchor="middle" x="154" y="-238.7" font-family="Times,serif" font-size="11.00" fill="#000000">read</text>
<polyline fill="none" stroke="#000000" points="172,-231.5 172,-251.5 "/>
<text text-anchor="middle" x="192" y="-238.7" font-family="Times,serif" font-size="11.00" fill="#000000">write</text>
</g>
<!-- fileevents&#45;&gt;files -->
<g id="edge12" class="edge">
<title>fileevents&#45;&gt;files</title>
<path fill="none" stroke="#000000" d="M174,-231.2692C174,-223.1345 174,-213.5833 174,-204.66"/>
<polygon fill="#000000" stroke="#000000" points="177.5001,-204.5957 174,-194.5957 170.5001,-204.5958 177.5001,-204.5957"/>
</g>
<!-- fileevents&#45;&gt;errors -->
<g id="edge14" class="edge">
<title>fileevents&#45;&gt;errors</title>
<path fill="none" stroke="#000000" d="M135.7452,-234.1686C120.1272,-224.939 103.7137,-211.9448 95,-195 86.6667,-178.7949 88.2372,-170.9208 95,-154 112.9057,-109.1993 153.7936,-70.8503 184.3693,-46.9008"/>
<polygon fill="#000000" stroke="#000000" points="186.8759,-49.39 192.6921,-40.5343 182.6229,-43.8301 186.8759,-49.39"/>
</g>
<!-- fileevents&#45;&gt;event -->
<g id="edge13" class="edge">
<title>fileevents&#45;&gt;event</title>
<path fill="none" stroke="#000000" d="M212.4064,-234.7921C236.6902,-224.228 268.477,-210.3998 295.4824,-198.6517"/>
<polygon fill="#000000" stroke="#000000" points="297.0413,-201.7905 304.8149,-194.5918 294.2488,-195.3716 297.0413,-201.7905"/>
</g>
<!-- files&#45;&gt;errors -->
<g id="edge15" class="edge">
<title>files&#45;&gt;errors</title>
<path fill="none" stroke="#000000" d="M173.5802,-154.467C173.7694,-134.3154 175.755,-102.6393 185,-77 188.4831,-67.3401 193.9134,-57.6771 199.5508,-49.1437"/>
<polygon fill="#000000" stroke="#000000" points="202.5836,-50.9134 205.4277,-40.7074 196.8398,-46.9121 202.5836,-50.9134"/>
</g>
<!-- files&#45;&gt;threading -->
<g id="edge16" class="edge">
<title>files&#45;&gt;threading</title>
<path fill="none" stroke="#000000" d="M201.3134,-154.4702C214.0947,-145.0972 229.486,-133.8102 243.1857,-123.7638"/>
<polygon fill="#000000" stroke="#000000" points="245.4643,-126.4331 251.4586,-117.697 241.3247,-120.7883 245.4643,-126.4331"/>
</g>
<!-- select&#45;&gt;errors -->
<g id="edge18" class="edge">
<title>select&#45;&gt;errors</title>
<path fill="none" stroke="#000000" d="M478.6841,-233.0161C495.1404,-224.1546 511.6899,-211.739 521,-195 529.8572,-179.0752 530.455,-169.5773 521,-154 468.2147,-67.0354 343.1252,-36.4188 272.6081,-25.8669"/>
<polygon fill="#000000" stroke="#000000" points="273.0071,-22.3886 262.6151,-24.4513 272.0253,-29.3194 273.0071,-22.3886"/>
</g>
<!-- select&#45;&gt;threading -->
<g id="edge17" class="edge">
<title>select&#45;&gt;threading</title>
<path fill="none" stroke="#000000" d="M431.2875,-231.2989C431.5705,-209.8282 428.7709,-176.0023 411,-154 399.9362,-140.3019 384.9282,-129.8615 368.995,-121.9239"/>
<polygon fill="#000000" stroke="#000000" points="370.074,-118.5663 359.5296,-117.5339 367.1288,-124.9165 370.074,-118.5663"/>
</g>
<!-- select&#45;&gt;event -->
<g id="edge19" class="edge">
<title>select&#45;&gt;event</title>
<path fill="none" stroke="#000000" d="M409.2437,-231.2692C399.9906,-222.2503 388.951,-211.4902 378.9836,-201.7751"/>
<polygon fill="#000000" stroke="#000000" points="381.2218,-199.0692 371.6177,-194.5957 376.3359,-204.082 381.2218,-199.0692"/>
</g>
<!-- macros -->
<g id="node11" class="node">
<title>macros</title>
<polygon fill="none" stroke="#000000" points="458,-154.5 458,-194.5 512,-194.5 512,-154.5 458,-154.5"/>
<text text-anchor="middle" x="485" y="-181.7" font-family="Times,serif" font-size="11.00" fill="#000000">macros/</text>
<polyline fill="none" stroke="#000000" points="458,-174.5 512,-174.5 "/>
<text text-anchor="middle" x="485" y="-161.7" font-family="Times,serif" font-size="11.00" fill="#000000">macros</text>
</g>
<!-- select&#45;&gt;macros -->
<g id="edge20" class="edge">
<title>select&#45;&gt;macros</title>
<path fill="none" stroke="#000000" d="M444.4506,-231.2692C450.64,-222.604 457.9775,-212.3315 464.6981,-202.9227"/>
<polygon fill="#000000" stroke="#000000" points="467.6816,-204.7674 470.6459,-194.5957 461.9854,-200.6987 467.6816,-204.7674"/>
</g>
<!-- threading&#45;&gt;errors -->
<g id="edge25" class="edge">
<title>threading&#45;&gt;errors</title>
<path fill="none" stroke="#000000" d="M264.0239,-77.2692C257.544,-68.5156 249.8498,-58.1217 242.8272,-48.635"/>
<polygon fill="#000000" stroke="#000000" points="245.639,-46.5507 236.8761,-40.5957 240.0128,-50.7156 245.639,-46.5507"/>
</g>
<!-- time -->
<g id="node12" class="node">
<title>time</title>
<polygon fill="none" stroke="#000000" points="606,-77.5 606,-117.5 752,-117.5 752,-77.5 606,-77.5"/>
<text text-anchor="middle" x="679" y="-104.7" font-family="Times,serif" font-size="11.00" fill="#000000">time/</text>
<polyline fill="none" stroke="#000000" points="606,-97.5 752,-97.5 "/>
<text text-anchor="middle" x="635" y="-84.7" font-family="Times,serif" font-size="11.00" fill="#000000">timepoint</text>
<polyline fill="none" stroke="#000000" points="664,-77.5 664,-97.5 "/>
<text text-anchor="middle" x="690.5" y="-84.7" font-family="Times,serif" font-size="11.00" fill="#000000">duration</text>
<polyline fill="none" stroke="#000000" points="717,-77.5 717,-97.5 "/>
<text text-anchor="middle" x="734.5" y="-84.7" font-family="Times,serif" font-size="11.00" fill="#000000">now</text>
</g>
<!-- time&#45;&gt;errors -->
<g id="edge21" class="edge">
<title>time&#45;&gt;errors</title>
<path fill="none" stroke="#000000" d="M605.9899,-79.85C601.2641,-78.8457 596.5703,-77.8859 592,-77 478.6026,-55.0183 344.2903,-36.3222 272.7823,-26.9471"/>
<polygon fill="#000000" stroke="#000000" points="273.0662,-23.4546 262.6976,-25.6323 272.1612,-30.3959 273.0662,-23.4546"/>
</g>
<!-- timeevents -->
<g id="node13" class="node">
<title>timeevents</title>
<polygon fill="none" stroke="#000000" points="526,-231.5 526,-271.5 630,-271.5 630,-231.5 526,-231.5"/>
<text text-anchor="middle" x="578" y="-258.7" font-family="Times,serif" font-size="11.00" fill="#000000">timeevents/</text>
<polyline fill="none" stroke="#000000" points="526,-251.5 630,-251.5 "/>
<text text-anchor="middle" x="551" y="-238.7" font-family="Times,serif" font-size="11.00" fill="#000000">timeout</text>
<polyline fill="none" stroke="#000000" points="576,-231.5 576,-251.5 "/>
<text text-anchor="middle" x="603" y="-238.7" font-family="Times,serif" font-size="11.00" fill="#000000">deadline</text>
</g>
<!-- timeevents&#45;&gt;errors -->
<g id="edge24" class="edge">
<title>timeevents&#45;&gt;errors</title>
<path fill="none" stroke="#000000" d="M573.0858,-231.239C562.7413,-193.4664 534.8399,-112.8767 478,-77 444.3432,-55.7562 337.1901,-37.1686 272.6716,-27.5231"/>
<polygon fill="#000000" stroke="#000000" points="273.1042,-24.0491 262.7006,-26.0528 272.083,-30.9742 273.1042,-24.0491"/>
</g>
<!-- timeevents&#45;&gt;event -->
<g id="edge23" class="edge">
<title>timeevents&#45;&gt;event</title>
<path fill="none" stroke="#000000" d="M525.9216,-233.8346C491.9421,-222.3086 447.4523,-207.2173 411.8451,-195.1391"/>
<polygon fill="#000000" stroke="#000000" points="412.6481,-191.7156 402.0537,-191.8178 410.3994,-198.3447 412.6481,-191.7156"/>
</g>
<!-- timeevents&#45;&gt;time -->
<g id="edge22" class="edge">
<title>timeevents&#45;&gt;time</title>
<path fill="none" stroke="#000000" d="M591.204,-231.3672C608.8215,-204.5049 640.1216,-156.7799 660.1991,-126.1667"/>
<polygon fill="#000000" stroke="#000000" points="663.2353,-127.9193 665.7928,-117.6378 657.3818,-124.0803 663.2353,-127.9193"/>
</g>
</g>
</svg>
