<?xml version="1.0" encoding="UTF-8" standalone="no"?>
<!DOCTYPE svg PUBLIC "-//W3C//DTD SVG 1.1//EN"
 "http://www.w3.org/Graphics/SVG/1.1/DTD/svg11.dtd">
<!-- Generated by graphviz version 2.40.1 (20161225.0304)
 -->
<!-- Title: structs Pages: 1 -->
<svg width="1006pt" height="511pt"
 viewBox="0.00 0.00 1006.31 511.00" xmlns="http://www.w3.org/2000/svg" xmlns:xlink="http://www.w3.org/1999/xlink">
<g id="graph0" class="graph" transform="scale(1 1) rotate(0) translate(4 507)">
<title>structs</title>
<polygon fill="#ffffff" stroke="transparent" points="-4,4 -4,-507 1002.3094,-507 1002.3094,4 -4,4"/>
<!-- root -->
<g id="node1" class="node">
<title>root</title>
<polygon fill="none" stroke="#000000" points="93.2686,-462.5 93.2686,-502.5 281.2686,-502.5 281.2686,-462.5 93.2686,-462.5"/>
<text text-anchor="middle" x="187.2686" y="-489.7" font-family="Times,serif" font-size="11.00" fill="#000000">./</text>
<polyline fill="none" stroke="#000000" points="93.2686,-482.5 281.2686,-482.5 "/>
<text text-anchor="middle" x="116.2686" y="-469.7" font-family="Times,serif" font-size="11.00" fill="#000000">chan.h</text>
<polyline fill="none" stroke="#000000" points="139.2686,-462.5 139.2686,-482.5 "/>
<text text-anchor="middle" x="164.7686" y="-469.7" font-family="Times,serif" font-size="11.00" fill="#000000">select.h</text>
<polyline fill="none" stroke="#000000" points="190.2686,-462.5 190.2686,-482.5 "/>
<text text-anchor="middle" x="215.7686" y="-469.7" font-family="Times,serif" font-size="11.00" fill="#000000">errors.h</text>
<polyline fill="none" stroke="#000000" points="241.2686,-462.5 241.2686,-482.5 "/>
<text text-anchor="middle" x="261.2686" y="-469.7" font-family="Times,serif" font-size="11.00" fill="#000000">file.h</text>
</g>
<!-- chan -->
<g id="node2" class="node">
<title>chan</title>
<polygon fill="none" stroke="#000000" points="310.2686,-385.5 310.2686,-425.5 364.2686,-425.5 364.2686,-385.5 310.2686,-385.5"/>
<text text-anchor="middle" x="337.2686" y="-412.7" font-family="Times,serif" font-size="11.00" fill="#000000">chan/</text>
<polyline fill="none" stroke="#000000" points="310.2686,-405.5 364.2686,-405.5 "/>
<text text-anchor="middle" x="337.2686" y="-392.7" font-family="Times,serif" font-size="11.00" fill="#000000">chan</text>
</g>
<!-- root&#45;&gt;chan -->
<g id="edge1" class="edge">
<title>root&#45;&gt;chan</title>
<path fill="none" stroke="#000000" d="M226.2878,-462.4702C249.4811,-450.5643 278.6907,-435.57 301.3212,-423.953"/>
<polygon fill="#000000" stroke="#000000" points="302.9696,-427.0411 310.2675,-419.3606 299.7728,-420.8137 302.9696,-427.0411"/>
</g>
<!-- select -->
<g id="node7" class="node">
<title>select</title>
<polygon fill="none" stroke="#000000" points="291.7686,-154.5 291.7686,-194.5 438.7686,-194.5 438.7686,-154.5 291.7686,-154.5"/>
<text text-anchor="middle" x="365.2686" y="-181.7" font-family="Times,serif" font-size="11.00" fill="#000000">select/</text>
<polyline fill="none" stroke="#000000" points="291.7686,-174.5 438.7686,-174.5 "/>
<text text-anchor="middle" x="313.2686" y="-161.7" font-family="Times,serif" font-size="11.00" fill="#000000">select</text>
<polyline fill="none" stroke="#000000" points="334.7686,-154.5 334.7686,-174.5 "/>
<text text-anchor="middle" x="361.7686" y="-161.7" font-family="Times,serif" font-size="11.00" fill="#000000">lasterror</text>
<polyline fill="none" stroke="#000000" points="388.7686,-154.5 388.7686,-174.5 "/>
<text text-anchor="middle" x="413.7686" y="-161.7" font-family="Times,serif" font-size="11.00" fill="#000000">random</text>
</g>
<!-- root&#45;&gt;select -->
<g id="edge3" class="edge">
<title>root&#45;&gt;select</title>
<path fill="none" stroke="#000000" d="M187.8204,-462.3769C190.1039,-416.188 201.709,-301.1573 260.2686,-231 271.0889,-218.0368 285.6742,-207.5983 300.5266,-199.3917"/>
<polygon fill="#000000" stroke="#000000" points="302.5289,-202.2949 309.7775,-194.5678 299.2923,-196.0881 302.5289,-202.2949"/>
</g>
<!-- errors -->
<g id="node8" class="node">
<title>errors</title>
<polygon fill="none" stroke="#000000" points="164.7686,-.5 164.7686,-40.5 471.7686,-40.5 471.7686,-.5 164.7686,-.5"/>
<text text-anchor="middle" x="318.2686" y="-27.7" font-family="Times,serif" font-size="11.00" fill="#000000">errors/</text>
<polyline fill="none" stroke="#000000" points="164.7686,-20.5 471.7686,-20.5 "/>
<text text-anchor="middle" x="183.7686" y="-7.7" font-family="Times,serif" font-size="11.00" fill="#000000">error</text>
<polyline fill="none" stroke="#000000" points="202.7686,-.5 202.7686,-20.5 "/>
<text text-anchor="middle" x="232.2686" y="-7.7" font-family="Times,serif" font-size="11.00" fill="#000000">errorcode</text>
<polyline fill="none" stroke="#000000" points="261.7686,-.5 261.7686,-20.5 "/>
<text text-anchor="middle" x="289.7686" y="-7.7" font-family="Times,serif" font-size="11.00" fill="#000000">noexcept</text>
<polyline fill="none" stroke="#000000" points="317.7686,-.5 317.7686,-20.5 "/>
<text text-anchor="middle" x="342.7686" y="-7.7" font-family="Times,serif" font-size="11.00" fill="#000000">strerror</text>
<polyline fill="none" stroke="#000000" points="367.7686,-.5 367.7686,-20.5 "/>
<text text-anchor="middle" x="419.7686" y="-7.7" font-family="Times,serif" font-size="11.00" fill="#000000">uncaughtexceptions</text>
</g>
<!-- root&#45;&gt;errors -->
<g id="edge2" class="edge">
<title>root&#45;&gt;errors</title>
<path fill="none" stroke="#000000" d="M130.3099,-462.4328C76.271,-439.3223 3.2686,-395.6712 3.2686,-328.5 3.2686,-328.5 3.2686,-328.5 3.2686,-174.5 3.2686,-130.4344 -9.8058,-108.2436 21.2686,-77 41.1686,-56.9917 96.751,-43.8234 154.5291,-35.2792"/>
<polygon fill="#000000" stroke="#000000" points="155.1687,-38.7235 164.5722,-33.8424 154.1773,-31.794 155.1687,-38.7235"/>
</g>
<!-- chanevents -->
<g id="node3" class="node">
<title>chanevents</title>
<polygon fill="none" stroke="#000000" points="253.2686,-308.5 253.2686,-348.5 611.2686,-348.5 611.2686,-308.5 253.2686,-308.5"/>
<text text-anchor="middle" x="432.2686" y="-335.7" font-family="Times,serif" font-size="11.00" fill="#000000">chanevents/</text>
<polyline fill="none" stroke="#000000" points="253.2686,-328.5 611.2686,-328.5 "/>
<text text-anchor="middle" x="284.2686" y="-315.7" font-family="Times,serif" font-size="11.00" fill="#000000">chanevent</text>
<polyline fill="none" stroke="#000000" points="315.2686,-308.5 315.2686,-328.5 "/>
<text text-anchor="middle" x="344.2686" y="-315.7" font-family="Times,serif" font-size="11.00" fill="#000000">chansend</text>
<polyline fill="none" stroke="#000000" points="373.2686,-308.5 373.2686,-328.5 "/>
<text text-anchor="middle" x="401.7686" y="-315.7" font-family="Times,serif" font-size="11.00" fill="#000000">chanrecv</text>
<polyline fill="none" stroke="#000000" points="430.2686,-308.5 430.2686,-328.5 "/>
<text text-anchor="middle" x="467.2686" y="-315.7" font-family="Times,serif" font-size="11.00" fill="#000000">chanprotocol</text>
<polyline fill="none" stroke="#000000" points="504.2686,-308.5 504.2686,-328.5 "/>
<text text-anchor="middle" x="557.7686" y="-315.7" font-family="Times,serif" font-size="11.00" fill="#000000">fulfillmentlockguard</text>
</g>
<!-- chan&#45;&gt;chanevents -->
<g id="edge7" class="edge">
<title>chan&#45;&gt;chanevents</title>
<path fill="none" stroke="#000000" d="M362.2287,-385.2692C373.6831,-375.985 387.4141,-364.8558 399.6717,-354.9207"/>
<polygon fill="#000000" stroke="#000000" points="401.9104,-357.6115 407.4752,-348.5957 397.5027,-352.1734 401.9104,-357.6115"/>
</g>
<!-- chanstate -->
<g id="node4" class="node">
<title>chanstate</title>
<polygon fill="none" stroke="#000000" points="884.2686,-231.5 884.2686,-271.5 946.2686,-271.5 946.2686,-231.5 884.2686,-231.5"/>
<text text-anchor="middle" x="915.2686" y="-258.7" font-family="Times,serif" font-size="11.00" fill="#000000">chanstate/</text>
<polyline fill="none" stroke="#000000" points="884.2686,-251.5 946.2686,-251.5 "/>
<text text-anchor="middle" x="915.2686" y="-238.7" font-family="Times,serif" font-size="11.00" fill="#000000">chanstate</text>
</g>
<!-- chan&#45;&gt;chanstate -->
<g id="edge8" class="edge">
<title>chan&#45;&gt;chanstate</title>
<path fill="none" stroke="#000000" d="M364.3977,-401.031C415.0403,-392.4796 527.2576,-372.5434 620.2686,-349 732.9759,-320.4709 761.5878,-313.2956 870.2686,-272 871.673,-271.4664 873.0957,-270.9099 874.5276,-270.3362"/>
<polygon fill="#000000" stroke="#000000" points="876.1457,-273.4531 884.0154,-266.3595 873.4398,-266.9972 876.1457,-273.4531"/>
</g>
<!-- chan&#45;&gt;select -->
<g id="edge9" class="edge">
<title>chan&#45;&gt;select</title>
<path fill="none" stroke="#000000" d="M310.2257,-397.3301C288.0981,-389.0524 258.2552,-373.8627 244.2686,-349 235.3343,-333.1183 237.7104,-325.0012 244.2686,-308 261.2992,-263.8506 300.4547,-225.2618 329.6397,-201.0786"/>
<polygon fill="#000000" stroke="#000000" points="332.0124,-203.6609 337.5803,-194.647 327.6065,-198.2213 332.0124,-203.6609"/>
</g>
<!-- chanevents&#45;&gt;chanstate -->
<g id="edge10" class="edge">
<title>chanevents&#45;&gt;chanstate</title>
<path fill="none" stroke="#000000" d="M611.3321,-317.5806C691.6393,-309.5903 786.8608,-295.7925 870.2686,-272 871.7133,-271.5879 873.1708,-271.1363 874.6326,-270.6526"/>
<polygon fill="#000000" stroke="#000000" points="876.1013,-273.8406 884.2518,-267.0715 873.659,-267.2804 876.1013,-273.8406"/>
</g>
<!-- chanevents&#45;&gt;select -->
<g id="edge13" class="edge">
<title>chanevents&#45;&gt;select</title>
<path fill="none" stroke="#000000" d="M379.6725,-308.28C364.1869,-299.5753 349.0533,-287.704 340.2686,-272 328.4113,-250.8033 336.7984,-223.8833 346.9426,-203.7027"/>
<polygon fill="#000000" stroke="#000000" points="350.1479,-205.1332 351.8211,-194.6713 343.989,-201.8063 350.1479,-205.1332"/>
</g>
<!-- chanevents&#45;&gt;errors -->
<g id="edge12" class="edge">
<title>chanevents&#45;&gt;errors</title>
<path fill="none" stroke="#000000" d="M385.5886,-308.4955C367.2921,-299.1722 346.968,-286.8336 331.2686,-272 301.7841,-244.1415 293.6098,-233.9462 282.2686,-195 267.6058,-144.647 267.5914,-127.3488 282.2686,-77 285.1193,-67.2209 290.2328,-57.5202 295.7272,-48.9889"/>
<polygon fill="#000000" stroke="#000000" points="298.7349,-50.7918 301.5119,-40.5673 292.965,-46.8284 298.7349,-50.7918"/>
</g>
<!-- event -->
<g id="node10" class="node">
<title>event</title>
<polygon fill="none" stroke="#000000" points="401.7686,-77.5 401.7686,-117.5 576.7686,-117.5 576.7686,-77.5 401.7686,-77.5"/>
<text text-anchor="middle" x="489.2686" y="-104.7" font-family="Times,serif" font-size="11.00" fill="#000000">event/</text>
<polyline fill="none" stroke="#000000" points="401.7686,-97.5 576.7686,-97.5 "/>
<text text-anchor="middle" x="438.2686" y="-84.7" font-family="Times,serif" font-size="11.00" fill="#000000">eventcontext</text>
<polyline fill="none" stroke="#000000" points="474.7686,-77.5 474.7686,-97.5 "/>
<text text-anchor="middle" x="501.2686" y="-84.7" font-family="Times,serif" font-size="11.00" fill="#000000">eventref</text>
<polyline fill="none" stroke="#000000" points="527.7686,-77.5 527.7686,-97.5 "/>
<text text-anchor="middle" x="552.2686" y="-84.7" font-family="Times,serif" font-size="11.00" fill="#000000">ioevent</text>
</g>
<!-- chanevents&#45;&gt;event -->
<g id="edge11" class="edge">
<title>chanevents&#45;&gt;event</title>
<path fill="none" stroke="#000000" d="M402.5642,-308.3302C391.1489,-298.7968 379.3943,-286.3476 373.2686,-272 366.1135,-255.2413 363.6045,-246.4485 373.2686,-231 392.6656,-199.993 422.0087,-221.4503 447.2686,-195 465.2088,-176.2144 476.1253,-148.5618 482.3142,-127.4991"/>
<polygon fill="#000000" stroke="#000000" points="485.7167,-128.3257 484.9827,-117.7563 478.9653,-126.4765 485.7167,-128.3257"/>
</g>
<!-- debug -->
<g id="node14" class="node">
<title>debug</title>
<polygon fill="none" stroke="#000000" points="633.7686,-77.5 633.7686,-117.5 748.7686,-117.5 748.7686,-77.5 633.7686,-77.5"/>
<text text-anchor="middle" x="691.2686" y="-104.7" font-family="Times,serif" font-size="11.00" fill="#000000">debug/</text>
<polyline fill="none" stroke="#000000" points="633.7686,-97.5 748.7686,-97.5 "/>
<text text-anchor="middle" x="653.2686" y="-84.7" font-family="Times,serif" font-size="11.00" fill="#000000">trace</text>
<polyline fill="none" stroke="#000000" points="672.7686,-77.5 672.7686,-97.5 "/>
<text text-anchor="middle" x="710.7686" y="-84.7" font-family="Times,serif" font-size="11.00" fill="#000000">currentthread</text>
</g>
<!-- chanevents&#45;&gt;debug -->
<g id="edge4" class="edge">
<title>chanevents&#45;&gt;debug</title>
<path fill="none" stroke="#000000" d="M593.1466,-308.4717C704.3439,-294.2447 833.0561,-276.8409 837.2686,-272 900.7618,-199.0342 755.8896,-207.0808 742.2686,-195 721.9113,-176.9447 708.4188,-148.7964 700.4543,-127.3765"/>
<polygon fill="#000000" stroke="#000000" points="703.6972,-126.0477 697.0809,-117.7728 697.0928,-128.3676 703.6972,-126.0477"/>
</g>
<!-- files -->
<g id="node6" class="node">
<title>files</title>
<polygon fill="none" stroke="#000000" points="750.7686,-154.5 750.7686,-194.5 981.7686,-194.5 981.7686,-154.5 750.7686,-154.5"/>
<text text-anchor="middle" x="866.2686" y="-181.7" font-family="Times,serif" font-size="11.00" fill="#000000">files/</text>
<polyline fill="none" stroke="#000000" points="750.7686,-174.5 981.7686,-174.5 "/>
<text text-anchor="middle" x="768.2686" y="-161.7" font-family="Times,serif" font-size="11.00" fill="#000000">pipe</text>
<polyline fill="none" stroke="#000000" points="785.7686,-154.5 785.7686,-174.5 "/>
<text text-anchor="middle" x="812.7686" y="-161.7" font-family="Times,serif" font-size="11.00" fill="#000000">pipepool</text>
<polyline fill="none" stroke="#000000" points="839.7686,-154.5 839.7686,-174.5 "/>
<text text-anchor="middle" x="855.7686" y="-161.7" font-family="Times,serif" font-size="11.00" fill="#000000">file</text>
<polyline fill="none" stroke="#000000" points="871.7686,-154.5 871.7686,-174.5 "/>
<text text-anchor="middle" x="926.7686" y="-161.7" font-family="Times,serif" font-size="11.00" fill="#000000">filenonblockingguard</text>
</g>
<!-- chanstate&#45;&gt;files -->
<g id="edge14" class="edge">
<title>chanstate&#45;&gt;files</title>
<path fill="none" stroke="#000000" d="M902.3944,-231.2692C896.9365,-222.6924 890.4765,-212.541 884.5392,-203.211"/>
<polygon fill="#000000" stroke="#000000" points="887.3784,-201.1533 879.0568,-194.5957 881.4728,-204.9114 887.3784,-201.1533"/>
</g>
<!-- threading -->
<g id="node9" class="node">
<title>threading</title>
<polygon fill="none" stroke="#000000" points="767.2686,-77.5 767.2686,-117.5 929.2686,-117.5 929.2686,-77.5 767.2686,-77.5"/>
<text text-anchor="middle" x="848.2686" y="-104.7" font-family="Times,serif" font-size="11.00" fill="#000000">threading/</text>
<polyline fill="none" stroke="#000000" points="767.2686,-97.5 929.2686,-97.5 "/>
<text text-anchor="middle" x="789.2686" y="-84.7" font-family="Times,serif" font-size="11.00" fill="#000000">mutex</text>
<polyline fill="none" stroke="#000000" points="811.2686,-77.5 811.2686,-97.5 "/>
<text text-anchor="middle" x="841.2686" y="-84.7" font-family="Times,serif" font-size="11.00" fill="#000000">lockguard</text>
<polyline fill="none" stroke="#000000" points="871.2686,-77.5 871.2686,-97.5 "/>
<text text-anchor="middle" x="900.2686" y="-84.7" font-family="Times,serif" font-size="11.00" fill="#000000">sharedptr</text>
</g>
<!-- chanstate&#45;&gt;threading -->
<g id="edge15" class="edge">
<title>chanstate&#45;&gt;threading</title>
<path fill="none" stroke="#000000" d="M946.5706,-237.1305C963.1137,-227.707 981.8913,-213.6561 991.2686,-195 999.4522,-178.7188 1001.5164,-169.0676 991.2686,-154 983.312,-142.3013 957.4267,-130.6036 929.8243,-120.9118"/>
<polygon fill="#000000" stroke="#000000" points="930.6104,-117.4822 920.016,-117.5707 928.3533,-124.1083 930.6104,-117.4822"/>
</g>
<!-- fileevents -->
<g id="node5" class="node">
<title>fileevents</title>
<polygon fill="none" stroke="#000000" points="382.7686,-231.5 382.7686,-271.5 827.7686,-271.5 827.7686,-231.5 382.7686,-231.5"/>
<text text-anchor="middle" x="605.2686" y="-258.7" font-family="Times,serif" font-size="11.00" fill="#000000">fileevents/</text>
<polyline fill="none" stroke="#000000" points="382.7686,-251.5 827.7686,-251.5 "/>
<text text-anchor="middle" x="412.7686" y="-238.7" font-family="Times,serif" font-size="11.00" fill="#000000">readevent</text>
<polyline fill="none" stroke="#000000" points="442.7686,-231.5 442.7686,-251.5 "/>
<text text-anchor="middle" x="474.7686" y="-238.7" font-family="Times,serif" font-size="11.00" fill="#000000">writeevent</text>
<polyline fill="none" stroke="#000000" points="506.7686,-231.5 506.7686,-251.5 "/>
<text text-anchor="middle" x="546.7686" y="-238.7" font-family="Times,serif" font-size="11.00" fill="#000000">readintobuffer</text>
<polyline fill="none" stroke="#000000" points="586.7686,-231.5 586.7686,-251.5 "/>
<text text-anchor="middle" x="625.2686" y="-238.7" font-family="Times,serif" font-size="11.00" fill="#000000">readintostring</text>
<polyline fill="none" stroke="#000000" points="663.7686,-231.5 663.7686,-251.5 "/>
<text text-anchor="middle" x="707.7686" y="-238.7" font-family="Times,serif" font-size="11.00" fill="#000000">writefrombuffer</text>
<polyline fill="none" stroke="#000000" points="751.7686,-231.5 751.7686,-251.5 "/>
<text text-anchor="middle" x="789.7686" y="-238.7" font-family="Times,serif" font-size="11.00" fill="#000000">ignoresigpipe</text>
</g>
<!-- fileevents&#45;&gt;files -->
<g id="edge16" class="edge">
<title>fileevents&#45;&gt;files</title>
<path fill="none" stroke="#000000" d="M673.1619,-231.4702C708.518,-221.0395 751.909,-208.2383 788.5977,-197.4144"/>
<polygon fill="#000000" stroke="#000000" points="789.6614,-200.7498 798.2623,-194.5632 787.6806,-194.0359 789.6614,-200.7498"/>
</g>
<!-- fileevents&#45;&gt;select -->
<g id="edge19" class="edge">
<title>fileevents&#45;&gt;select</title>
<path fill="none" stroke="#000000" d="M542.8379,-231.4702C510.6033,-221.1282 471.1055,-208.456 437.5528,-197.6912"/>
<polygon fill="#000000" stroke="#000000" points="438.3943,-194.2855 427.8031,-194.5632 436.2558,-200.9509 438.3943,-194.2855"/>
</g>
<!-- fileevents&#45;&gt;errors -->
<g id="edge18" class="edge">
<title>fileevents&#45;&gt;errors</title>
<path fill="none" stroke="#000000" d="M609.7405,-231.2304C616.3892,-195.2195 624.2577,-119.8558 585.2686,-77 569.864,-60.0676 528.0494,-47.868 481.9563,-39.2408"/>
<polygon fill="#000000" stroke="#000000" points="482.5265,-35.7872 472.0635,-37.4536 481.282,-42.6757 482.5265,-35.7872"/>
</g>
<!-- fileevents&#45;&gt;event -->
<g id="edge17" class="edge">
<title>fileevents&#45;&gt;event</title>
<path fill="none" stroke="#000000" d="M590.1036,-231.3672C569.7828,-204.3896 533.6121,-156.3699 510.5655,-125.7735"/>
<polygon fill="#000000" stroke="#000000" points="513.2496,-123.5195 504.4373,-117.6378 507.6583,-127.7311 513.2496,-123.5195"/>
</g>
<!-- fileevents&#45;&gt;debug -->
<g id="edge5" class="edge">
<title>fileevents&#45;&gt;debug</title>
<path fill="none" stroke="#000000" d="M616.5116,-231.3672C631.4483,-204.6201 657.9357,-157.1892 675.0393,-126.5618"/>
<polygon fill="#000000" stroke="#000000" points="678.2029,-128.0751 680.0228,-117.6378 672.0913,-124.6621 678.2029,-128.0751"/>
</g>
<!-- files&#45;&gt;errors -->
<g id="edge20" class="edge">
<title>files&#45;&gt;errors</title>
<path fill="none" stroke="#000000" d="M904.2504,-154.377C917.5472,-145.2037 930.9709,-133.003 938.2686,-118 946.2392,-101.6135 950.5551,-90.457 938.2686,-77 907.9527,-43.7958 655.1125,-29.8859 481.8283,-24.2165"/>
<polygon fill="#000000" stroke="#000000" points="481.9359,-20.7182 471.8287,-23.8955 481.7113,-27.7146 481.9359,-20.7182"/>
</g>
<!-- files&#45;&gt;threading -->
<g id="edge21" class="edge">
<title>files&#45;&gt;threading</title>
<path fill="none" stroke="#000000" d="M861.5393,-154.2692C859.617,-146.0461 857.3564,-136.3755 855.251,-127.3692"/>
<polygon fill="#000000" stroke="#000000" points="858.6508,-126.5365 852.9663,-117.5957 851.8346,-128.1299 858.6508,-126.5365"/>
</g>
<!-- files&#45;&gt;debug -->
<g id="edge6" class="edge">
<title>files&#45;&gt;debug</title>
<path fill="none" stroke="#000000" d="M820.7462,-154.4702C797.948,-144.4389 770.167,-132.2153 746.1924,-121.6665"/>
<polygon fill="#000000" stroke="#000000" points="747.4295,-118.387 736.8667,-117.5632 744.6103,-124.7942 747.4295,-118.387"/>
</g>
<!-- select&#45;&gt;errors -->
<g id="edge23" class="edge">
<title>select&#45;&gt;errors</title>
<path fill="none" stroke="#000000" d="M365.6207,-154.4911C365.379,-134.3583 363.3533,-102.6965 354.2686,-77 350.8446,-67.3149 345.4982,-57.5876 339.9634,-49"/>
<polygon fill="#000000" stroke="#000000" points="342.7135,-46.8195 334.2001,-40.5129 336.9225,-50.752 342.7135,-46.8195"/>
</g>
<!-- select&#45;&gt;threading -->
<g id="edge22" class="edge">
<title>select&#45;&gt;threading</title>
<path fill="none" stroke="#000000" d="M438.8806,-165.641C515.712,-155.9977 639.8633,-139.3009 757.0992,-117.9576"/>
<polygon fill="#000000" stroke="#000000" points="757.7648,-121.394 766.9689,-116.1466 756.5014,-114.5089 757.7648,-121.394"/>
</g>
<!-- select&#45;&gt;event -->
<g id="edge24" class="edge">
<title>select&#45;&gt;event</title>
<path fill="none" stroke="#000000" d="M397.5244,-154.4702C412.9033,-144.9204 431.482,-133.3836 447.8872,-123.1965"/>
<polygon fill="#000000" stroke="#000000" points="450.0945,-125.9458 456.7435,-117.697 446.4018,-119.999 450.0945,-125.9458"/>
</g>
<!-- macros -->
<g id="node11" class="node">
<title>macros</title>
<polygon fill="none" stroke="#000000" points="291.2686,-77.5 291.2686,-117.5 345.2686,-117.5 345.2686,-77.5 291.2686,-77.5"/>
<text text-anchor="middle" x="318.2686" y="-104.7" font-family="Times,serif" font-size="11.00" fill="#000000">macros/</text>
<polyline fill="none" stroke="#000000" points="291.2686,-97.5 345.2686,-97.5 "/>
<text text-anchor="middle" x="318.2686" y="-84.7" font-family="Times,serif" font-size="11.00" fill="#000000">macros</text>
</g>
<!-- select&#45;&gt;macros -->
<g id="edge25" class="edge">
<title>select&#45;&gt;macros</title>
<path fill="none" stroke="#000000" d="M352.9199,-154.2692C347.6847,-145.6924 341.4884,-135.541 335.7935,-126.211"/>
<polygon fill="#000000" stroke="#000000" points="338.7323,-124.3078 330.5348,-117.5957 332.7574,-127.9548 338.7323,-124.3078"/>
</g>
<!-- threading&#45;&gt;errors -->
<g id="edge30" class="edge">
<title>threading&#45;&gt;errors</title>
<path fill="none" stroke="#000000" d="M766.98,-78.7918C763.7048,-78.1636 760.4582,-77.5632 757.2686,-77 666.6449,-60.9969 564.7393,-47.602 481.939,-37.8771"/>
<polygon fill="#000000" stroke="#000000" points="482.2766,-34.3929 471.9382,-36.7094 481.4648,-41.3456 482.2766,-34.3929"/>
</g>
<!-- time -->
<g id="node12" class="node">
<title>time</title>
<polygon fill="none" stroke="#000000" points="30.7686,-77.5 30.7686,-117.5 197.7686,-117.5 197.7686,-77.5 30.7686,-77.5"/>
<text text-anchor="middle" x="114.2686" y="-104.7" font-family="Times,serif" font-size="11.00" fill="#000000">time/</text>
<polyline fill="none" stroke="#000000" points="30.7686,-97.5 197.7686,-97.5 "/>
<text text-anchor="middle" x="59.7686" y="-84.7" font-family="Times,serif" font-size="11.00" fill="#000000">timepoint</text>
<polyline fill="none" stroke="#000000" points="88.7686,-77.5 88.7686,-97.5 "/>
<text text-anchor="middle" x="115.2686" y="-84.7" font-family="Times,serif" font-size="11.00" fill="#000000">duration</text>
<polyline fill="none" stroke="#000000" points="141.7686,-77.5 141.7686,-97.5 "/>
<text text-anchor="middle" x="169.7686" y="-84.7" font-family="Times,serif" font-size="11.00" fill="#000000">timespec</text>
</g>
<!-- time&#45;&gt;errors -->
<g id="edge26" class="edge">
<title>time&#45;&gt;errors</title>
<path fill="none" stroke="#000000" d="M167.3347,-77.4702C194.3813,-67.2614 227.4437,-54.7819 255.7229,-44.1079"/>
<polygon fill="#000000" stroke="#000000" points="256.9945,-47.3691 265.1142,-40.5632 254.5225,-40.8201 256.9945,-47.3691"/>
</g>
<!-- timeevents -->
<g id="node13" class="node">
<title>timeevents</title>
<polygon fill="none" stroke="#000000" points="131.2686,-154.5 131.2686,-194.5 235.2686,-194.5 235.2686,-154.5 131.2686,-154.5"/>
<text text-anchor="middle" x="183.2686" y="-181.7" font-family="Times,serif" font-size="11.00" fill="#000000">timeevents/</text>
<polyline fill="none" stroke="#000000" points="131.2686,-174.5 235.2686,-174.5 "/>
<text text-anchor="middle" x="156.2686" y="-161.7" font-family="Times,serif" font-size="11.00" fill="#000000">timeout</text>
<polyline fill="none" stroke="#000000" points="181.2686,-154.5 181.2686,-174.5 "/>
<text text-anchor="middle" x="208.2686" y="-161.7" font-family="Times,serif" font-size="11.00" fill="#000000">deadline</text>
</g>
<!-- timeevents&#45;&gt;errors -->
<g id="edge29" class="edge">
<title>timeevents&#45;&gt;errors</title>
<path fill="none" stroke="#000000" d="M194.6234,-154.2262C206.6969,-133.6027 227.0813,-101.3054 249.2686,-77 259.0962,-66.2342 271.0277,-55.7452 282.1864,-46.7856"/>
<polygon fill="#000000" stroke="#000000" points="284.4271,-49.4763 290.1339,-40.5498 280.106,-43.9691 284.4271,-49.4763"/>
</g>
<!-- timeevents&#45;&gt;event -->
<g id="edge28" class="edge">
<title>timeevents&#45;&gt;event</title>
<path fill="none" stroke="#000000" d="M235.5242,-161.3507C280.519,-150.0285 346.4397,-133.4406 399.8137,-120.0099"/>
<polygon fill="#000000" stroke="#000000" points="400.7823,-123.3753 409.6259,-117.5408 399.0741,-116.587 400.7823,-123.3753"/>
</g>
<!-- timeevents&#45;&gt;time -->
<g id="edge27" class="edge">
<title>timeevents&#45;&gt;time</title>
<path fill="none" stroke="#000000" d="M165.1397,-154.2692C157.1371,-145.3387 147.6046,-134.701 138.9662,-125.0611"/>
<polygon fill="#000000" stroke="#000000" points="141.5567,-122.7073 132.2765,-117.5957 136.3435,-127.3789 141.5567,-122.7073"/>
</g>
</g>
</svg>
