<?xml version="1.0" encoding="UTF-8" standalone="no"?>
<!DOCTYPE svg PUBLIC "-//W3C//DTD SVG 1.1//EN"
 "http://www.w3.org/Graphics/SVG/1.1/DTD/svg11.dtd">
<!-- Generated by graphviz version 2.40.1 (20161225.0304)
 -->
<!-- Title: structs Pages: 1 -->
<svg width="781pt" height="511pt"
 viewBox="0.00 0.00 780.50 511.00" xmlns="http://www.w3.org/2000/svg" xmlns:xlink="http://www.w3.org/1999/xlink">
<g id="graph0" class="graph" transform="scale(1 1) rotate(0) translate(4 507)">
<title>structs</title>
<polygon fill="#ffffff" stroke="transparent" points="-4,4 -4,-507 776.5,-507 776.5,4 -4,4"/>
<!-- root -->
<g id="node1" class="node">
<title>root</title>
<polygon fill="none" stroke="#000000" points="262,-462.5 262,-502.5 446,-502.5 446,-462.5 262,-462.5"/>
<text text-anchor="middle" x="354" y="-489.7" font-family="Times,serif" font-size="11.00" fill="#000000">./</text>
<polyline fill="none" stroke="#000000" points="262,-482.5 446,-482.5 "/>
<text text-anchor="middle" x="285" y="-469.7" font-family="Times,serif" font-size="11.00" fill="#000000">chan.h</text>
<polyline fill="none" stroke="#000000" points="308,-462.5 308,-482.5 "/>
<text text-anchor="middle" x="333.5" y="-469.7" font-family="Times,serif" font-size="11.00" fill="#000000">select.h</text>
<polyline fill="none" stroke="#000000" points="359,-462.5 359,-482.5 "/>
<text text-anchor="middle" x="382.5" y="-469.7" font-family="Times,serif" font-size="11.00" fill="#000000">error.h</text>
<polyline fill="none" stroke="#000000" points="406,-462.5 406,-482.5 "/>
<text text-anchor="middle" x="426" y="-469.7" font-family="Times,serif" font-size="11.00" fill="#000000">file.h</text>
</g>
<!-- chan -->
<g id="node2" class="node">
<title>chan</title>
<polygon fill="none" stroke="#000000" points="327,-385.5 327,-425.5 381,-425.5 381,-385.5 327,-385.5"/>
<text text-anchor="middle" x="354" y="-412.7" font-family="Times,serif" font-size="11.00" fill="#000000">chan/</text>
<polyline fill="none" stroke="#000000" points="327,-405.5 381,-405.5 "/>
<text text-anchor="middle" x="354" y="-392.7" font-family="Times,serif" font-size="11.00" fill="#000000">chan</text>
</g>
<!-- root&#45;&gt;chan -->
<g id="edge1" class="edge">
<title>root&#45;&gt;chan</title>
<path fill="none" stroke="#000000" d="M354,-462.2692C354,-454.1345 354,-444.5833 354,-435.66"/>
<polygon fill="#000000" stroke="#000000" points="357.5001,-435.5957 354,-425.5957 350.5001,-435.5958 357.5001,-435.5957"/>
</g>
<!-- select -->
<g id="node7" class="node">
<title>select</title>
<polygon fill="none" stroke="#000000" points="356.5,-231.5 356.5,-271.5 503.5,-271.5 503.5,-231.5 356.5,-231.5"/>
<text text-anchor="middle" x="430" y="-258.7" font-family="Times,serif" font-size="11.00" fill="#000000">select/</text>
<polyline fill="none" stroke="#000000" points="356.5,-251.5 503.5,-251.5 "/>
<text text-anchor="middle" x="378" y="-238.7" font-family="Times,serif" font-size="11.00" fill="#000000">select</text>
<polyline fill="none" stroke="#000000" points="399.5,-231.5 399.5,-251.5 "/>
<text text-anchor="middle" x="426.5" y="-238.7" font-family="Times,serif" font-size="11.00" fill="#000000">lasterror</text>
<polyline fill="none" stroke="#000000" points="453.5,-231.5 453.5,-251.5 "/>
<text text-anchor="middle" x="478.5" y="-238.7" font-family="Times,serif" font-size="11.00" fill="#000000">random</text>
</g>
<!-- root&#45;&gt;select -->
<g id="edge3" class="edge">
<title>root&#45;&gt;select</title>
<path fill="none" stroke="#000000" d="M369.3048,-462.2454C376.5026,-451.8743 384.6571,-438.768 390,-426 410.2241,-377.6702 421.1573,-317.3307 426.2665,-281.7505"/>
<polygon fill="#000000" stroke="#000000" points="429.775,-281.9274 427.669,-271.544 422.8402,-280.9744 429.775,-281.9274"/>
</g>
<!-- errors -->
<g id="node8" class="node">
<title>errors</title>
<polygon fill="none" stroke="#000000" points="120.5,-.5 120.5,-40.5 323.5,-40.5 323.5,-.5 120.5,-.5"/>
<text text-anchor="middle" x="222" y="-27.7" font-family="Times,serif" font-size="11.00" fill="#000000">errors/</text>
<polyline fill="none" stroke="#000000" points="120.5,-20.5 323.5,-20.5 "/>
<text text-anchor="middle" x="139.5" y="-7.7" font-family="Times,serif" font-size="11.00" fill="#000000">error</text>
<polyline fill="none" stroke="#000000" points="158.5,-.5 158.5,-20.5 "/>
<text text-anchor="middle" x="188" y="-7.7" font-family="Times,serif" font-size="11.00" fill="#000000">errorcode</text>
<polyline fill="none" stroke="#000000" points="217.5,-.5 217.5,-20.5 "/>
<text text-anchor="middle" x="245.5" y="-7.7" font-family="Times,serif" font-size="11.00" fill="#000000">noexcept</text>
<polyline fill="none" stroke="#000000" points="273.5,-.5 273.5,-20.5 "/>
<text text-anchor="middle" x="298.5" y="-7.7" font-family="Times,serif" font-size="11.00" fill="#000000">strerror</text>
</g>
<!-- root&#45;&gt;errors -->
<g id="edge2" class="edge">
<title>root&#45;&gt;errors</title>
<path fill="none" stroke="#000000" d="M265.584,-462.4863C160.7317,-436.1325 0,-386.3065 0,-328.5 0,-328.5 0,-328.5 0,-174.5 0,-106.5992 70.9815,-66.2483 132.6712,-44.0014"/>
<polygon fill="#000000" stroke="#000000" points="134.1877,-47.1795 142.48,-40.5849 131.8851,-40.569 134.1877,-47.1795"/>
</g>
<!-- chanevents -->
<g id="node3" class="node">
<title>chanevents</title>
<polygon fill="none" stroke="#000000" points="210.5,-308.5 210.5,-348.5 325.5,-348.5 325.5,-308.5 210.5,-308.5"/>
<text text-anchor="middle" x="268" y="-335.7" font-family="Times,serif" font-size="11.00" fill="#000000">chanevents/</text>
<polyline fill="none" stroke="#000000" points="210.5,-328.5 325.5,-328.5 "/>
<text text-anchor="middle" x="239.5" y="-315.7" font-family="Times,serif" font-size="11.00" fill="#000000">chansend</text>
<polyline fill="none" stroke="#000000" points="268.5,-308.5 268.5,-328.5 "/>
<text text-anchor="middle" x="297" y="-315.7" font-family="Times,serif" font-size="11.00" fill="#000000">chanrecv</text>
</g>
<!-- chan&#45;&gt;chanevents -->
<g id="edge4" class="edge">
<title>chan&#45;&gt;chanevents</title>
<path fill="none" stroke="#000000" d="M331.4045,-385.2692C321.2328,-376.1619 309.0779,-365.2791 298.1443,-355.4897"/>
<polygon fill="#000000" stroke="#000000" points="300.2294,-352.6587 290.4446,-348.5957 295.5601,-357.8738 300.2294,-352.6587"/>
</g>
<!-- chanstate -->
<g id="node4" class="node">
<title>chanstate</title>
<polygon fill="none" stroke="#000000" points="238,-231.5 238,-271.5 300,-271.5 300,-231.5 238,-231.5"/>
<text text-anchor="middle" x="269" y="-258.7" font-family="Times,serif" font-size="11.00" fill="#000000">chanstate/</text>
<polyline fill="none" stroke="#000000" points="238,-251.5 300,-251.5 "/>
<text text-anchor="middle" x="269" y="-238.7" font-family="Times,serif" font-size="11.00" fill="#000000">chanstate</text>
</g>
<!-- chan&#45;&gt;chanstate -->
<g id="edge5" class="edge">
<title>chan&#45;&gt;chanstate</title>
<path fill="none" stroke="#000000" d="M353.8856,-385.4805C352.9384,-364.7706 349.0662,-332.1383 335,-308 328.2886,-296.4828 318.3455,-286.1842 308.2017,-277.6352"/>
<polygon fill="#000000" stroke="#000000" points="310.0834,-274.6594 300.0816,-271.1645 305.721,-280.1338 310.0834,-274.6594"/>
</g>
<!-- chan&#45;&gt;select -->
<g id="edge6" class="edge">
<title>chan&#45;&gt;select</title>
<path fill="none" stroke="#000000" d="M363.9357,-385.3672C377.0786,-358.7354 400.3414,-311.5977 415.4619,-280.9588"/>
<polygon fill="#000000" stroke="#000000" points="418.775,-282.1541 420.0619,-271.6378 412.4977,-279.0563 418.775,-282.1541"/>
</g>
<!-- chanevents&#45;&gt;chanstate -->
<g id="edge7" class="edge">
<title>chanevents&#45;&gt;chanstate</title>
<path fill="none" stroke="#000000" d="M268.2627,-308.2692C268.3684,-300.1345 268.4924,-290.5833 268.6083,-281.66"/>
<polygon fill="#000000" stroke="#000000" points="272.1088,-281.6404 268.739,-271.5957 265.1094,-281.5494 272.1088,-281.6404"/>
</g>
<!-- chanevents&#45;&gt;errors -->
<g id="edge9" class="edge">
<title>chanevents&#45;&gt;errors</title>
<path fill="none" stroke="#000000" d="M210.4935,-315.391C182.737,-306.7553 150.4556,-293.0464 127,-272 98.1427,-246.1066 95.3907,-232.6168 86,-195 73.0156,-142.9877 76.1802,-117.761 111,-77 122.2711,-63.8058 137.3835,-53.3316 152.8212,-45.1687"/>
<polygon fill="#000000" stroke="#000000" points="154.5373,-48.2239 161.9217,-40.6264 151.4112,-41.9607 154.5373,-48.2239"/>
</g>
<!-- event -->
<g id="node10" class="node">
<title>event</title>
<polygon fill="none" stroke="#000000" points="300,-154.5 300,-194.5 402,-194.5 402,-154.5 300,-154.5"/>
<text text-anchor="middle" x="351" y="-181.7" font-family="Times,serif" font-size="11.00" fill="#000000">event/</text>
<polyline fill="none" stroke="#000000" points="300,-174.5 402,-174.5 "/>
<text text-anchor="middle" x="326.5" y="-161.7" font-family="Times,serif" font-size="11.00" fill="#000000">eventref</text>
<polyline fill="none" stroke="#000000" points="353,-154.5 353,-174.5 "/>
<text text-anchor="middle" x="377.5" y="-161.7" font-family="Times,serif" font-size="11.00" fill="#000000">ioevent</text>
</g>
<!-- chanevents&#45;&gt;event -->
<g id="edge8" class="edge">
<title>chanevents&#45;&gt;event</title>
<path fill="none" stroke="#000000" d="M284.3304,-308.3079C292.3502,-297.8456 301.8084,-284.641 309,-272 321.4745,-250.0729 332.6161,-223.721 340.284,-203.9441"/>
<polygon fill="#000000" stroke="#000000" points="343.5786,-205.1273 343.8628,-194.5363 337.036,-202.6385 343.5786,-205.1273"/>
</g>
<!-- files -->
<g id="node6" class="node">
<title>files</title>
<polygon fill="none" stroke="#000000" points="104.5,-154.5 104.5,-194.5 243.5,-194.5 243.5,-154.5 104.5,-154.5"/>
<text text-anchor="middle" x="174" y="-181.7" font-family="Times,serif" font-size="11.00" fill="#000000">files/</text>
<polyline fill="none" stroke="#000000" points="104.5,-174.5 243.5,-174.5 "/>
<text text-anchor="middle" x="131" y="-161.7" font-family="Times,serif" font-size="11.00" fill="#000000">pipepair</text>
<polyline fill="none" stroke="#000000" points="157.5,-154.5 157.5,-174.5 "/>
<text text-anchor="middle" x="184.5" y="-161.7" font-family="Times,serif" font-size="11.00" fill="#000000">pipepool</text>
<polyline fill="none" stroke="#000000" points="211.5,-154.5 211.5,-174.5 "/>
<text text-anchor="middle" x="227.5" y="-161.7" font-family="Times,serif" font-size="11.00" fill="#000000">file</text>
</g>
<!-- chanstate&#45;&gt;files -->
<g id="edge10" class="edge">
<title>chanstate&#45;&gt;files</title>
<path fill="none" stroke="#000000" d="M244.0399,-231.2692C232.5854,-221.985 218.8545,-210.8558 206.5969,-200.9207"/>
<polygon fill="#000000" stroke="#000000" points="208.7659,-198.1734 198.7934,-194.5957 204.3582,-203.6115 208.7659,-198.1734"/>
</g>
<!-- threading -->
<g id="node9" class="node">
<title>threading</title>
<polygon fill="none" stroke="#000000" points="196,-77.5 196,-117.5 358,-117.5 358,-77.5 196,-77.5"/>
<text text-anchor="middle" x="277" y="-104.7" font-family="Times,serif" font-size="11.00" fill="#000000">threading/</text>
<polyline fill="none" stroke="#000000" points="196,-97.5 358,-97.5 "/>
<text text-anchor="middle" x="218" y="-84.7" font-family="Times,serif" font-size="11.00" fill="#000000">mutex</text>
<polyline fill="none" stroke="#000000" points="240,-77.5 240,-97.5 "/>
<text text-anchor="middle" x="270" y="-84.7" font-family="Times,serif" font-size="11.00" fill="#000000">lockguard</text>
<polyline fill="none" stroke="#000000" points="300,-77.5 300,-97.5 "/>
<text text-anchor="middle" x="329" y="-84.7" font-family="Times,serif" font-size="11.00" fill="#000000">sharedptr</text>
</g>
<!-- chanstate&#45;&gt;threading -->
<g id="edge11" class="edge">
<title>chanstate&#45;&gt;threading</title>
<path fill="none" stroke="#000000" d="M270.0459,-231.3672C271.4174,-204.966 273.8357,-158.4124 275.4281,-127.7583"/>
<polygon fill="#000000" stroke="#000000" points="278.9303,-127.8059 275.9539,-117.6378 271.9397,-127.4427 278.9303,-127.8059"/>
</g>
<!-- fileevents -->
<g id="node5" class="node">
<title>fileevents</title>
<polygon fill="none" stroke="#000000" points="136,-231.5 136,-271.5 212,-271.5 212,-231.5 136,-231.5"/>
<text text-anchor="middle" x="174" y="-258.7" font-family="Times,serif" font-size="11.00" fill="#000000">fileevents/</text>
<polyline fill="none" stroke="#000000" points="136,-251.5 212,-251.5 "/>
<text text-anchor="middle" x="154" y="-238.7" font-family="Times,serif" font-size="11.00" fill="#000000">read</text>
<polyline fill="none" stroke="#000000" points="172,-231.5 172,-251.5 "/>
<text text-anchor="middle" x="192" y="-238.7" font-family="Times,serif" font-size="11.00" fill="#000000">write</text>
</g>
<!-- fileevents&#45;&gt;files -->
<g id="edge12" class="edge">
<title>fileevents&#45;&gt;files</title>
<path fill="none" stroke="#000000" d="M174,-231.2692C174,-223.1345 174,-213.5833 174,-204.66"/>
<polygon fill="#000000" stroke="#000000" points="177.5001,-204.5957 174,-194.5957 170.5001,-204.5958 177.5001,-204.5957"/>
</g>
<!-- fileevents&#45;&gt;errors -->
<g id="edge14" class="edge">
<title>fileevents&#45;&gt;errors</title>
<path fill="none" stroke="#000000" d="M135.7452,-234.1686C120.1272,-224.939 103.7137,-211.9448 95,-195 86.6667,-178.7949 88.2372,-170.9208 95,-154 112.9057,-109.1993 153.7936,-70.8503 184.3693,-46.9008"/>
<polygon fill="#000000" stroke="#000000" points="186.8759,-49.39 192.6921,-40.5343 182.6229,-43.8301 186.8759,-49.39"/>
</g>
<!-- fileevents&#45;&gt;event -->
<g id="edge13" class="edge">
<title>fileevents&#45;&gt;event</title>
<path fill="none" stroke="#000000" d="M212.4064,-234.7921C236.6902,-224.228 268.477,-210.3998 295.4824,-198.6517"/>
<polygon fill="#000000" stroke="#000000" points="297.0413,-201.7905 304.8149,-194.5918 294.2488,-195.3716 297.0413,-201.7905"/>
</g>
<!-- files&#45;&gt;errors -->
<g id="edge15" class="edge">
<title>files&#45;&gt;errors</title>
<path fill="none" stroke="#000000" d="M174.2453,-154.1249C175.0538,-133.9851 177.8534,-102.5653 187,-77 190.4329,-67.4047 195.663,-57.7052 201.0417,-49.1155"/>
<polygon fill="#000000" stroke="#000000" points="204.0604,-50.895 206.6314,-40.6168 198.212,-47.0483 204.0604,-50.895"/>
</g>
<!-- files&#45;&gt;threading -->
<g id="edge16" class="edge">
<title>files&#45;&gt;threading</title>
<path fill="none" stroke="#000000" d="M200.7932,-154.4702C213.331,-145.0972 228.4292,-133.8102 241.8679,-123.7638"/>
<polygon fill="#000000" stroke="#000000" points="244.0695,-126.4879 249.9832,-117.697 239.8782,-120.8814 244.0695,-126.4879"/>
</g>
<!-- select&#45;&gt;errors -->
<g id="edge18" class="edge">
<title>select&#45;&gt;errors</title>
<path fill="none" stroke="#000000" d="M481.5595,-231.4311C497.0439,-222.6935 512.2323,-210.764 521,-195 529.8572,-179.0752 530.58,-169.5007 521,-154 480.9056,-89.1259 400.7243,-55.5836 333.4801,-38.3505"/>
<polygon fill="#000000" stroke="#000000" points="334.2066,-34.9248 323.659,-35.9244 332.5278,-41.7205 334.2066,-34.9248"/>
</g>
<!-- select&#45;&gt;threading -->
<g id="edge17" class="edge">
<title>select&#45;&gt;threading</title>
<path fill="none" stroke="#000000" d="M431.3106,-231.2803C431.6132,-209.7935 428.8304,-175.9541 411,-154 399.5175,-139.8619 383.8655,-129.2053 367.3057,-121.1908"/>
<polygon fill="#000000" stroke="#000000" points="368.5875,-117.9294 358.0331,-117.0047 365.7073,-124.3094 368.5875,-117.9294"/>
</g>
<!-- select&#45;&gt;event -->
<g id="edge19" class="edge">
<title>select&#45;&gt;event</title>
<path fill="none" stroke="#000000" d="M409.2437,-231.2692C399.9906,-222.2503 388.951,-211.4902 378.9836,-201.7751"/>
<polygon fill="#000000" stroke="#000000" points="381.2218,-199.0692 371.6177,-194.5957 376.3359,-204.082 381.2218,-199.0692"/>
</g>
<!-- macros -->
<g id="node11" class="node">
<title>macros</title>
<polygon fill="none" stroke="#000000" points="458,-154.5 458,-194.5 512,-194.5 512,-154.5 458,-154.5"/>
<text text-anchor="middle" x="485" y="-181.7" font-family="Times,serif" font-size="11.00" fill="#000000">macros/</text>
<polyline fill="none" stroke="#000000" points="458,-174.5 512,-174.5 "/>
<text text-anchor="middle" x="485" y="-161.7" font-family="Times,serif" font-size="11.00" fill="#000000">macros</text>
</g>
<!-- select&#45;&gt;macros -->
<g id="edge20" class="edge">
<title>select&#45;&gt;macros</title>
<path fill="none" stroke="#000000" d="M444.4506,-231.2692C450.64,-222.604 457.9775,-212.3315 464.6981,-202.9227"/>
<polygon fill="#000000" stroke="#000000" points="467.6816,-204.7674 470.6459,-194.5957 461.9854,-200.6987 467.6816,-204.7674"/>
</g>
<!-- threading&#45;&gt;errors -->
<g id="edge25" class="edge">
<title>threading&#45;&gt;errors</title>
<path fill="none" stroke="#000000" d="M262.5494,-77.2692C256.36,-68.604 249.0225,-58.3315 242.3019,-48.9227"/>
<polygon fill="#000000" stroke="#000000" points="245.0146,-46.6987 236.3541,-40.5957 239.3184,-50.7674 245.0146,-46.6987"/>
</g>
<!-- time -->
<g id="node12" class="node">
<title>time</title>
<polygon fill="none" stroke="#000000" points="605.5,-77.5 605.5,-117.5 772.5,-117.5 772.5,-77.5 605.5,-77.5"/>
<text text-anchor="middle" x="689" y="-104.7" font-family="Times,serif" font-size="11.00" fill="#000000">time/</text>
<polyline fill="none" stroke="#000000" points="605.5,-97.5 772.5,-97.5 "/>
<text text-anchor="middle" x="634.5" y="-84.7" font-family="Times,serif" font-size="11.00" fill="#000000">timepoint</text>
<polyline fill="none" stroke="#000000" points="663.5,-77.5 663.5,-97.5 "/>
<text text-anchor="middle" x="690" y="-84.7" font-family="Times,serif" font-size="11.00" fill="#000000">duration</text>
<polyline fill="none" stroke="#000000" points="716.5,-77.5 716.5,-97.5 "/>
<text text-anchor="middle" x="744.5" y="-84.7" font-family="Times,serif" font-size="11.00" fill="#000000">timespec</text>
</g>
<!-- time&#45;&gt;errors -->
<g id="edge21" class="edge">
<title>time&#45;&gt;errors</title>
<path fill="none" stroke="#000000" d="M605.4605,-79.5305C600.9121,-78.6503 596.403,-77.8008 592,-77 505.6,-61.2864 407.3091,-46.4178 333.7601,-35.8811"/>
<polygon fill="#000000" stroke="#000000" points="333.9444,-32.372 323.55,-34.4234 332.955,-39.3017 333.9444,-32.372"/>
</g>
<!-- timeevents -->
<g id="node13" class="node">
<title>timeevents</title>
<polygon fill="none" stroke="#000000" points="526,-231.5 526,-271.5 630,-271.5 630,-231.5 526,-231.5"/>
<text text-anchor="middle" x="578" y="-258.7" font-family="Times,serif" font-size="11.00" fill="#000000">timeevents/</text>
<polyline fill="none" stroke="#000000" points="526,-251.5 630,-251.5 "/>
<text text-anchor="middle" x="551" y="-238.7" font-family="Times,serif" font-size="11.00" fill="#000000">timeout</text>
<polyline fill="none" stroke="#000000" points="576,-231.5 576,-251.5 "/>
<text text-anchor="middle" x="603" y="-238.7" font-family="Times,serif" font-size="11.00" fill="#000000">deadline</text>
</g>
<!-- timeevents&#45;&gt;errors -->
<g id="edge24" class="edge">
<title>timeevents&#45;&gt;errors</title>
<path fill="none" stroke="#000000" d="M573.0858,-231.239C562.7413,-193.4664 534.8399,-112.8767 478,-77 453.6685,-61.6422 390.926,-47.6727 333.6491,-37.4663"/>
<polygon fill="#000000" stroke="#000000" points="334.2263,-34.0142 323.7719,-35.7332 333.0165,-40.9088 334.2263,-34.0142"/>
</g>
<!-- timeevents&#45;&gt;event -->
<g id="edge23" class="edge">
<title>timeevents&#45;&gt;event</title>
<path fill="none" stroke="#000000" d="M525.9216,-233.8346C491.9421,-222.3086 447.4523,-207.2173 411.8451,-195.1391"/>
<polygon fill="#000000" stroke="#000000" points="412.6481,-191.7156 402.0537,-191.8178 410.3994,-198.3447 412.6481,-191.7156"/>
</g>
<!-- timeevents&#45;&gt;time -->
<g id="edge22" class="edge">
<title>timeevents&#45;&gt;time</title>
<path fill="none" stroke="#000000" d="M592.5113,-231.3672C611.9562,-204.3896 646.5678,-156.3699 668.621,-125.7735"/>
<polygon fill="#000000" stroke="#000000" points="671.4772,-127.7967 674.4851,-117.6378 665.7985,-123.7036 671.4772,-127.7967"/>
</g>
</g>
</svg>
