<?xml version="1.0" encoding="UTF-8" standalone="no"?>
<!DOCTYPE svg PUBLIC "-//W3C//DTD SVG 1.1//EN"
 "http://www.w3.org/Graphics/SVG/1.1/DTD/svg11.dtd">
<!-- Generated by graphviz version 2.40.1 (20161225.0304)
 -->
<!-- Title: structs Pages: 1 -->
<svg width="747pt" height="511pt"
 viewBox="0.00 0.00 746.61 511.00" xmlns="http://www.w3.org/2000/svg" xmlns:xlink="http://www.w3.org/1999/xlink">
<g id="graph0" class="graph" transform="scale(1 1) rotate(0) translate(4 507)">
<title>structs</title>
<polygon fill="#ffffff" stroke="transparent" points="-4,4 -4,-507 742.6084,-507 742.6084,4 -4,4"/>
<!-- root -->
<g id="node1" class="node">
<title>root</title>
<polygon fill="none" stroke="#000000" points="481.6084,-462.5 481.6084,-502.5 665.6084,-502.5 665.6084,-462.5 481.6084,-462.5"/>
<text text-anchor="middle" x="573.6084" y="-489.7" font-family="Times,serif" font-size="11.00" fill="#000000">./</text>
<polyline fill="none" stroke="#000000" points="481.6084,-482.5 665.6084,-482.5 "/>
<text text-anchor="middle" x="504.6084" y="-469.7" font-family="Times,serif" font-size="11.00" fill="#000000">chan.h</text>
<polyline fill="none" stroke="#000000" points="527.6084,-462.5 527.6084,-482.5 "/>
<text text-anchor="middle" x="553.1084" y="-469.7" font-family="Times,serif" font-size="11.00" fill="#000000">select.h</text>
<polyline fill="none" stroke="#000000" points="578.6084,-462.5 578.6084,-482.5 "/>
<text text-anchor="middle" x="602.1084" y="-469.7" font-family="Times,serif" font-size="11.00" fill="#000000">error.h</text>
<polyline fill="none" stroke="#000000" points="625.6084,-462.5 625.6084,-482.5 "/>
<text text-anchor="middle" x="645.6084" y="-469.7" font-family="Times,serif" font-size="11.00" fill="#000000">file.h</text>
</g>
<!-- chan -->
<g id="node2" class="node">
<title>chan</title>
<polygon fill="none" stroke="#000000" points="546.6084,-385.5 546.6084,-425.5 600.6084,-425.5 600.6084,-385.5 546.6084,-385.5"/>
<text text-anchor="middle" x="573.6084" y="-412.7" font-family="Times,serif" font-size="11.00" fill="#000000">chan/</text>
<polyline fill="none" stroke="#000000" points="546.6084,-405.5 600.6084,-405.5 "/>
<text text-anchor="middle" x="573.6084" y="-392.7" font-family="Times,serif" font-size="11.00" fill="#000000">chan</text>
</g>
<!-- root&#45;&gt;chan -->
<g id="edge1" class="edge">
<title>root&#45;&gt;chan</title>
<path fill="none" stroke="#000000" d="M573.6084,-462.2692C573.6084,-454.1345 573.6084,-444.5833 573.6084,-435.66"/>
<polygon fill="#000000" stroke="#000000" points="577.1085,-435.5957 573.6084,-425.5957 570.1085,-435.5958 577.1085,-435.5957"/>
</g>
<!-- select -->
<g id="node7" class="node">
<title>select</title>
<polygon fill="none" stroke="#000000" points="367.1084,-154.5 367.1084,-194.5 514.1084,-194.5 514.1084,-154.5 367.1084,-154.5"/>
<text text-anchor="middle" x="440.6084" y="-181.7" font-family="Times,serif" font-size="11.00" fill="#000000">select/</text>
<polyline fill="none" stroke="#000000" points="367.1084,-174.5 514.1084,-174.5 "/>
<text text-anchor="middle" x="388.6084" y="-161.7" font-family="Times,serif" font-size="11.00" fill="#000000">select</text>
<polyline fill="none" stroke="#000000" points="410.1084,-154.5 410.1084,-174.5 "/>
<text text-anchor="middle" x="437.1084" y="-161.7" font-family="Times,serif" font-size="11.00" fill="#000000">lasterror</text>
<polyline fill="none" stroke="#000000" points="464.1084,-154.5 464.1084,-174.5 "/>
<text text-anchor="middle" x="489.1084" y="-161.7" font-family="Times,serif" font-size="11.00" fill="#000000">random</text>
</g>
<!-- root&#45;&gt;select -->
<g id="edge3" class="edge">
<title>root&#45;&gt;select</title>
<path fill="none" stroke="#000000" d="M535.7409,-462.3373C498.5564,-440.1498 444.0971,-400.6682 420.6084,-349 399.0953,-301.6775 415.1024,-240.0006 428.1993,-204.0712"/>
<polygon fill="#000000" stroke="#000000" points="431.4977,-205.2443 431.7825,-194.6533 424.9552,-202.7551 431.4977,-205.2443"/>
</g>
<!-- errors -->
<g id="node8" class="node">
<title>errors</title>
<polygon fill="none" stroke="#000000" points="259.1084,-.5 259.1084,-40.5 462.1084,-40.5 462.1084,-.5 259.1084,-.5"/>
<text text-anchor="middle" x="360.6084" y="-27.7" font-family="Times,serif" font-size="11.00" fill="#000000">errors/</text>
<polyline fill="none" stroke="#000000" points="259.1084,-20.5 462.1084,-20.5 "/>
<text text-anchor="middle" x="278.1084" y="-7.7" font-family="Times,serif" font-size="11.00" fill="#000000">error</text>
<polyline fill="none" stroke="#000000" points="297.1084,-.5 297.1084,-20.5 "/>
<text text-anchor="middle" x="326.6084" y="-7.7" font-family="Times,serif" font-size="11.00" fill="#000000">errorcode</text>
<polyline fill="none" stroke="#000000" points="356.1084,-.5 356.1084,-20.5 "/>
<text text-anchor="middle" x="384.1084" y="-7.7" font-family="Times,serif" font-size="11.00" fill="#000000">noexcept</text>
<polyline fill="none" stroke="#000000" points="412.1084,-.5 412.1084,-20.5 "/>
<text text-anchor="middle" x="437.1084" y="-7.7" font-family="Times,serif" font-size="11.00" fill="#000000">strerror</text>
</g>
<!-- root&#45;&gt;errors -->
<g id="edge2" class="edge">
<title>root&#45;&gt;errors</title>
<path fill="none" stroke="#000000" d="M621.3332,-462.4655C670.064,-438.4397 738.6084,-393.154 738.6084,-328.5 738.6084,-328.5 738.6084,-328.5 738.6084,-174.5 738.6084,-121.6686 715.0577,-105.5556 670.6084,-77 638.1225,-56.13 547.205,-41.0968 472.1736,-31.809"/>
<polygon fill="#000000" stroke="#000000" points="472.5195,-28.3254 462.1701,-30.5928 471.6746,-35.2742 472.5195,-28.3254"/>
</g>
<!-- chanevents -->
<g id="node3" class="node">
<title>chanevents</title>
<polygon fill="none" stroke="#000000" points="430.1084,-308.5 430.1084,-348.5 545.1084,-348.5 545.1084,-308.5 430.1084,-308.5"/>
<text text-anchor="middle" x="487.6084" y="-335.7" font-family="Times,serif" font-size="11.00" fill="#000000">chanevents/</text>
<polyline fill="none" stroke="#000000" points="430.1084,-328.5 545.1084,-328.5 "/>
<text text-anchor="middle" x="459.1084" y="-315.7" font-family="Times,serif" font-size="11.00" fill="#000000">chansend</text>
<polyline fill="none" stroke="#000000" points="488.1084,-308.5 488.1084,-328.5 "/>
<text text-anchor="middle" x="516.6084" y="-315.7" font-family="Times,serif" font-size="11.00" fill="#000000">chanrecv</text>
</g>
<!-- chan&#45;&gt;chanevents -->
<g id="edge4" class="edge">
<title>chan&#45;&gt;chanevents</title>
<path fill="none" stroke="#000000" d="M551.0129,-385.2692C540.8412,-376.1619 528.6863,-365.2791 517.7527,-355.4897"/>
<polygon fill="#000000" stroke="#000000" points="519.8378,-352.6587 510.053,-348.5957 515.1685,-357.8738 519.8378,-352.6587"/>
</g>
<!-- chanstate -->
<g id="node4" class="node">
<title>chanstate</title>
<polygon fill="none" stroke="#000000" points="601.6084,-231.5 601.6084,-271.5 663.6084,-271.5 663.6084,-231.5 601.6084,-231.5"/>
<text text-anchor="middle" x="632.6084" y="-258.7" font-family="Times,serif" font-size="11.00" fill="#000000">chanstate/</text>
<polyline fill="none" stroke="#000000" points="601.6084,-251.5 663.6084,-251.5 "/>
<text text-anchor="middle" x="632.6084" y="-238.7" font-family="Times,serif" font-size="11.00" fill="#000000">chanstate</text>
</g>
<!-- chan&#45;&gt;chanstate -->
<g id="edge5" class="edge">
<title>chan&#45;&gt;chanstate</title>
<path fill="none" stroke="#000000" d="M581.3216,-385.3672C591.4805,-358.8507 609.4278,-312.0054 621.1694,-281.3576"/>
<polygon fill="#000000" stroke="#000000" points="624.584,-282.2281 624.8933,-271.6378 618.0473,-279.7237 624.584,-282.2281"/>
</g>
<!-- chan&#45;&gt;select -->
<g id="edge6" class="edge">
<title>chan&#45;&gt;select</title>
<path fill="none" stroke="#000000" d="M572.3785,-385.1409C570.4844,-364.7357 565.6931,-332.8663 553.6084,-308 533.3137,-266.24 496.9493,-226.7388 470.952,-201.6962"/>
<polygon fill="#000000" stroke="#000000" points="473.2486,-199.0507 463.5817,-194.7146 468.4346,-204.1326 473.2486,-199.0507"/>
</g>
<!-- chanevents&#45;&gt;chanstate -->
<g id="edge7" class="edge">
<title>chanevents&#45;&gt;chanstate</title>
<path fill="none" stroke="#000000" d="M525.3269,-308.4702C545.9397,-297.5241 571.4684,-283.9674 592.4511,-272.8249"/>
<polygon fill="#000000" stroke="#000000" points="594.2465,-275.8345 601.4369,-268.0532 590.9634,-269.6521 594.2465,-275.8345"/>
</g>
<!-- chanevents&#45;&gt;select -->
<g id="edge10" class="edge">
<title>chanevents&#45;&gt;select</title>
<path fill="none" stroke="#000000" d="M481.464,-308.3672C473.3713,-281.8507 459.0744,-235.0054 449.7208,-204.3576"/>
<polygon fill="#000000" stroke="#000000" points="453.021,-203.1806 446.7543,-194.6378 446.3259,-205.2239 453.021,-203.1806"/>
</g>
<!-- chanevents&#45;&gt;errors -->
<g id="edge9" class="edge">
<title>chanevents&#45;&gt;errors</title>
<path fill="none" stroke="#000000" d="M429.8317,-315.6844C384.1196,-305.1392 318.8452,-289.1779 262.6084,-272 135.6223,-233.2114 40.0562,-246.4962 6.6084,-118 2.0181,-100.3654 -5.2177,-90.8633 6.6084,-77 22.4236,-58.4604 151.3897,-41.4579 249.1354,-31.0511"/>
<polygon fill="#000000" stroke="#000000" points="249.5116,-34.531 259.0898,-30.0024 248.7782,-27.5695 249.5116,-34.531"/>
</g>
<!-- event -->
<g id="node10" class="node">
<title>event</title>
<polygon fill="none" stroke="#000000" points="211.6084,-77.5 211.6084,-117.5 313.6084,-117.5 313.6084,-77.5 211.6084,-77.5"/>
<text text-anchor="middle" x="262.6084" y="-104.7" font-family="Times,serif" font-size="11.00" fill="#000000">event/</text>
<polyline fill="none" stroke="#000000" points="211.6084,-97.5 313.6084,-97.5 "/>
<text text-anchor="middle" x="238.1084" y="-84.7" font-family="Times,serif" font-size="11.00" fill="#000000">eventref</text>
<polyline fill="none" stroke="#000000" points="264.6084,-77.5 264.6084,-97.5 "/>
<text text-anchor="middle" x="289.1084" y="-84.7" font-family="Times,serif" font-size="11.00" fill="#000000">ioevent</text>
</g>
<!-- chanevents&#45;&gt;event -->
<g id="edge8" class="edge">
<title>chanevents&#45;&gt;event</title>
<path fill="none" stroke="#000000" d="M429.6945,-319.1871C377.85,-309.6288 307.22,-293.1761 288.6084,-272 253.4912,-232.044 254.0553,-165.9899 258.0501,-127.637"/>
<polygon fill="#000000" stroke="#000000" points="261.5384,-127.9415 259.241,-117.5988 254.5872,-127.1168 261.5384,-127.9415"/>
</g>
<!-- files -->
<g id="node6" class="node">
<title>files</title>
<polygon fill="none" stroke="#000000" points="571.1084,-154.5 571.1084,-194.5 710.1084,-194.5 710.1084,-154.5 571.1084,-154.5"/>
<text text-anchor="middle" x="640.6084" y="-181.7" font-family="Times,serif" font-size="11.00" fill="#000000">files/</text>
<polyline fill="none" stroke="#000000" points="571.1084,-174.5 710.1084,-174.5 "/>
<text text-anchor="middle" x="597.6084" y="-161.7" font-family="Times,serif" font-size="11.00" fill="#000000">pipe</text>
<polyline fill="none" stroke="#000000" points="624.1084,-154.5 624.1084,-174.5 "/>
<text text-anchor="middle" x="651.1084" y="-161.7" font-family="Times,serif" font-size="11.00" fill="#000000">pipepool</text>
<polyline fill="none" stroke="#000000" points="678.1084,-154.5 678.1084,-174.5 "/>
<text text-anchor="middle" x="694.1084" y="-161.7" font-family="Times,serif" font-size="11.00" fill="#000000">file</text>
</g>
<!-- chanstate&#45;&gt;files -->
<g id="edge11" class="edge">
<title>chanstate&#45;&gt;files</title>
<path fill="none" stroke="#000000" d="M634.7103,-231.2692C635.5555,-223.1345 636.5478,-213.5833 637.4749,-204.66"/>
<polygon fill="#000000" stroke="#000000" points="640.9683,-204.9039 638.5205,-194.5957 634.0058,-204.1805 640.9683,-204.9039"/>
</g>
<!-- threading -->
<g id="node9" class="node">
<title>threading</title>
<polygon fill="none" stroke="#000000" points="479.6084,-77.5 479.6084,-117.5 641.6084,-117.5 641.6084,-77.5 479.6084,-77.5"/>
<text text-anchor="middle" x="560.6084" y="-104.7" font-family="Times,serif" font-size="11.00" fill="#000000">threading/</text>
<polyline fill="none" stroke="#000000" points="479.6084,-97.5 641.6084,-97.5 "/>
<text text-anchor="middle" x="501.6084" y="-84.7" font-family="Times,serif" font-size="11.00" fill="#000000">mutex</text>
<polyline fill="none" stroke="#000000" points="523.6084,-77.5 523.6084,-97.5 "/>
<text text-anchor="middle" x="553.6084" y="-84.7" font-family="Times,serif" font-size="11.00" fill="#000000">lockguard</text>
<polyline fill="none" stroke="#000000" points="583.6084,-77.5 583.6084,-97.5 "/>
<text text-anchor="middle" x="612.6084" y="-84.7" font-family="Times,serif" font-size="11.00" fill="#000000">sharedptr</text>
</g>
<!-- chanstate&#45;&gt;threading -->
<g id="edge12" class="edge">
<title>chanstate&#45;&gt;threading</title>
<path fill="none" stroke="#000000" d="M601.5485,-235.4588C586.5651,-225.9093 570.0447,-212.268 561.6084,-195 551.4674,-174.2427 551.8545,-147.908 554.4267,-127.8415"/>
<polygon fill="#000000" stroke="#000000" points="557.9258,-128.1125 555.9768,-117.6984 551.0061,-127.0549 557.9258,-128.1125"/>
</g>
<!-- fileevents -->
<g id="node5" class="node">
<title>fileevents</title>
<polygon fill="none" stroke="#000000" points="297.6084,-231.5 297.6084,-271.5 373.6084,-271.5 373.6084,-231.5 297.6084,-231.5"/>
<text text-anchor="middle" x="335.6084" y="-258.7" font-family="Times,serif" font-size="11.00" fill="#000000">fileevents/</text>
<polyline fill="none" stroke="#000000" points="297.6084,-251.5 373.6084,-251.5 "/>
<text text-anchor="middle" x="315.6084" y="-238.7" font-family="Times,serif" font-size="11.00" fill="#000000">read</text>
<polyline fill="none" stroke="#000000" points="333.6084,-231.5 333.6084,-251.5 "/>
<text text-anchor="middle" x="353.6084" y="-238.7" font-family="Times,serif" font-size="11.00" fill="#000000">write</text>
</g>
<!-- fileevents&#45;&gt;files -->
<g id="edge13" class="edge">
<title>fileevents&#45;&gt;files</title>
<path fill="none" stroke="#000000" d="M373.6202,-241.9036C420.2862,-230.1223 500.659,-209.8315 561.0587,-194.583"/>
<polygon fill="#000000" stroke="#000000" points="562.1121,-197.927 570.9511,-192.0856 560.3986,-191.1399 562.1121,-197.927"/>
</g>
<!-- fileevents&#45;&gt;select -->
<g id="edge16" class="edge">
<title>fileevents&#45;&gt;select</title>
<path fill="none" stroke="#000000" d="M362.9218,-231.4702C375.7031,-222.0972 391.0945,-210.8102 404.7941,-200.7638"/>
<polygon fill="#000000" stroke="#000000" points="407.0727,-203.4331 413.067,-194.697 402.9331,-197.7883 407.0727,-203.4331"/>
</g>
<!-- fileevents&#45;&gt;errors -->
<g id="edge15" class="edge">
<title>fileevents&#45;&gt;errors</title>
<path fill="none" stroke="#000000" d="M337.7833,-231.4044C342.1789,-190.7887 352.1422,-98.7275 357.3301,-50.7914"/>
<polygon fill="#000000" stroke="#000000" points="360.8244,-51.0322 358.4208,-40.7137 353.865,-50.279 360.8244,-51.0322"/>
</g>
<!-- fileevents&#45;&gt;event -->
<g id="edge14" class="edge">
<title>fileevents&#45;&gt;event</title>
<path fill="none" stroke="#000000" d="M326.0649,-231.3672C313.4408,-204.7354 291.0963,-157.5977 276.5726,-126.9588"/>
<polygon fill="#000000" stroke="#000000" points="279.6003,-125.1747 272.1542,-117.6378 273.275,-128.1731 279.6003,-125.1747"/>
</g>
<!-- files&#45;&gt;errors -->
<g id="edge17" class="edge">
<title>files&#45;&gt;errors</title>
<path fill="none" stroke="#000000" d="M650.4303,-154.1186C659.2592,-132.4936 668.3542,-98.5368 650.6084,-77 627.9056,-49.4472 544.1467,-35.153 472.4442,-27.845"/>
<polygon fill="#000000" stroke="#000000" points="472.7086,-24.3543 462.4143,-26.8596 472.0241,-31.3207 472.7086,-24.3543"/>
</g>
<!-- files&#45;&gt;threading -->
<g id="edge18" class="edge">
<title>files&#45;&gt;threading</title>
<path fill="none" stroke="#000000" d="M619.5893,-154.2692C610.2191,-145.2503 599.0398,-134.4902 588.9462,-124.7751"/>
<polygon fill="#000000" stroke="#000000" points="591.1191,-122.0087 581.4871,-117.5957 586.2648,-127.0522 591.1191,-122.0087"/>
</g>
<!-- select&#45;&gt;errors -->
<g id="edge20" class="edge">
<title>select&#45;&gt;errors</title>
<path fill="none" stroke="#000000" d="M423.6549,-154.4704C415.3823,-144.0495 405.7099,-130.8329 398.6084,-118 386.6233,-96.3421 376.6317,-70.1197 369.9066,-50.3264"/>
<polygon fill="#000000" stroke="#000000" points="373.159,-49.0139 366.6943,-40.62 366.5135,-51.2133 373.159,-49.0139"/>
</g>
<!-- select&#45;&gt;threading -->
<g id="edge19" class="edge">
<title>select&#45;&gt;threading</title>
<path fill="none" stroke="#000000" d="M471.8237,-154.4702C486.7065,-144.9204 504.6859,-133.3836 520.5619,-123.1965"/>
<polygon fill="#000000" stroke="#000000" points="522.6063,-126.0433 529.1325,-117.697 518.826,-120.1518 522.6063,-126.0433"/>
</g>
<!-- select&#45;&gt;event -->
<g id="edge21" class="edge">
<title>select&#45;&gt;event</title>
<path fill="none" stroke="#000000" d="M394.3057,-154.4702C371.1166,-144.4389 342.8594,-132.2153 318.4737,-121.6665"/>
<polygon fill="#000000" stroke="#000000" points="319.5559,-118.3212 308.9882,-117.5632 316.7766,-124.7458 319.5559,-118.3212"/>
</g>
<!-- macros -->
<g id="node11" class="node">
<title>macros</title>
<polygon fill="none" stroke="#000000" points="407.6084,-77.5 407.6084,-117.5 461.6084,-117.5 461.6084,-77.5 407.6084,-77.5"/>
<text text-anchor="middle" x="434.6084" y="-104.7" font-family="Times,serif" font-size="11.00" fill="#000000">macros/</text>
<polyline fill="none" stroke="#000000" points="407.6084,-97.5 461.6084,-97.5 "/>
<text text-anchor="middle" x="434.6084" y="-84.7" font-family="Times,serif" font-size="11.00" fill="#000000">macros</text>
</g>
<!-- select&#45;&gt;macros -->
<g id="edge22" class="edge">
<title>select&#45;&gt;macros</title>
<path fill="none" stroke="#000000" d="M439.032,-154.2692C438.3981,-146.1345 437.6539,-136.5833 436.9585,-127.66"/>
<polygon fill="#000000" stroke="#000000" points="440.4407,-127.2936 436.1743,-117.5957 433.4618,-127.8374 440.4407,-127.2936"/>
</g>
<!-- threading&#45;&gt;errors -->
<g id="edge27" class="edge">
<title>threading&#45;&gt;errors</title>
<path fill="none" stroke="#000000" d="M508.5829,-77.4702C482.1818,-67.3058 449.9341,-54.8904 422.2896,-44.2473"/>
<polygon fill="#000000" stroke="#000000" points="423.3103,-40.8899 412.7205,-40.5632 420.7952,-47.4224 423.3103,-40.8899"/>
</g>
<!-- time -->
<g id="node12" class="node">
<title>time</title>
<polygon fill="none" stroke="#000000" points="27.1084,-77.5 27.1084,-117.5 194.1084,-117.5 194.1084,-77.5 27.1084,-77.5"/>
<text text-anchor="middle" x="110.6084" y="-104.7" font-family="Times,serif" font-size="11.00" fill="#000000">time/</text>
<polyline fill="none" stroke="#000000" points="27.1084,-97.5 194.1084,-97.5 "/>
<text text-anchor="middle" x="56.1084" y="-84.7" font-family="Times,serif" font-size="11.00" fill="#000000">timepoint</text>
<polyline fill="none" stroke="#000000" points="85.1084,-77.5 85.1084,-97.5 "/>
<text text-anchor="middle" x="111.6084" y="-84.7" font-family="Times,serif" font-size="11.00" fill="#000000">duration</text>
<polyline fill="none" stroke="#000000" points="138.1084,-77.5 138.1084,-97.5 "/>
<text text-anchor="middle" x="166.1084" y="-84.7" font-family="Times,serif" font-size="11.00" fill="#000000">timespec</text>
</g>
<!-- time&#45;&gt;errors -->
<g id="edge23" class="edge">
<title>time&#45;&gt;errors</title>
<path fill="none" stroke="#000000" d="M175.6403,-77.4702C209.3622,-67.0838 250.715,-54.3472 285.762,-43.5527"/>
<polygon fill="#000000" stroke="#000000" points="286.9416,-46.8517 295.4683,-40.5632 284.881,-40.1618 286.9416,-46.8517"/>
</g>
<!-- timeevents -->
<g id="node13" class="node">
<title>timeevents</title>
<polygon fill="none" stroke="#000000" points="58.6084,-154.5 58.6084,-194.5 162.6084,-194.5 162.6084,-154.5 58.6084,-154.5"/>
<text text-anchor="middle" x="110.6084" y="-181.7" font-family="Times,serif" font-size="11.00" fill="#000000">timeevents/</text>
<polyline fill="none" stroke="#000000" points="58.6084,-174.5 162.6084,-174.5 "/>
<text text-anchor="middle" x="83.6084" y="-161.7" font-family="Times,serif" font-size="11.00" fill="#000000">timeout</text>
<polyline fill="none" stroke="#000000" points="108.6084,-154.5 108.6084,-174.5 "/>
<text text-anchor="middle" x="135.6084" y="-161.7" font-family="Times,serif" font-size="11.00" fill="#000000">deadline</text>
</g>
<!-- timeevents&#45;&gt;errors -->
<g id="edge26" class="edge">
<title>timeevents&#45;&gt;errors</title>
<path fill="none" stroke="#000000" d="M58.4334,-154.9399C42.442,-146.1978 26.6858,-134.1361 17.6084,-118 8.6741,-102.1183 5.8169,-90.8928 17.6084,-77 32.6804,-59.2422 154.304,-42.3555 248.4912,-31.7468"/>
<polygon fill="#000000" stroke="#000000" points="249.1204,-35.1984 258.6713,-30.6124 248.3451,-28.2415 249.1204,-35.1984"/>
</g>
<!-- timeevents&#45;&gt;event -->
<g id="edge25" class="edge">
<title>timeevents&#45;&gt;event</title>
<path fill="none" stroke="#000000" d="M150.1478,-154.4702C169.6869,-144.5721 193.4396,-132.5394 214.0722,-122.0874"/>
<polygon fill="#000000" stroke="#000000" points="215.6642,-125.2045 223.0032,-117.5632 212.5008,-118.96 215.6642,-125.2045"/>
</g>
<!-- timeevents&#45;&gt;time -->
<g id="edge24" class="edge">
<title>timeevents&#45;&gt;time</title>
<path fill="none" stroke="#000000" d="M110.6084,-154.2692C110.6084,-146.1345 110.6084,-136.5833 110.6084,-127.66"/>
<polygon fill="#000000" stroke="#000000" points="114.1085,-127.5957 110.6084,-117.5957 107.1085,-127.5958 114.1085,-127.5957"/>
</g>
</g>
</svg>
